<?xml version="1.0" standalone="no"?>
<!DOCTYPE svg PUBLIC "-//W3C//DTD SVG 1.1//EN" "http://www.w3.org/Graphics/SVG/1.1/DTD/svg11.dtd" >
<svg xmlns="http://www.w3.org/2000/svg">
<metadata>Generated by IcoMoon</metadata>
<defs>
<font id="pe-icon-set-edition" horiz-adv-x="1024">
<font-face units-per-em="1024" ascent="960" descent="-64" />
<missing-glyph horiz-adv-x="1024" />
<glyph unicode="&#x20;" d="" horiz-adv-x="512" />
<glyph unicode="&#xe600;" d="M800 736v224h-800v-800h224v-224h800v800h-224zM64 224v672h672v-160h-512v-512h-160zM960 0h-672v672h672v-672zM832 368h-176v176c0 17.6-14.4 32-32 32s-32-14.4-32-32v-176h-176c-17.6 0-32-14.4-32-32s14.4-32 32-32h176v-176c0-17.6 14.4-32 32-32s32 14.4 32 32v176h176c17.6 0 32 14.4 32 32s-14.4 32-32 32z" />
<glyph unicode="&#xe601;" d="M800 960h-800v-800h160v640h640zM224 736v-800h800v800h-800zM832 304h-176v-176c0-17.6-14.4-32-32-32s-32 14.4-32 32v176h-176c-17.6 0-32 14.4-32 32s14.4 32 32 32h176v176c0 17.6 14.4 32 32 32s32-14.4 32-32v-176h176c17.6 0 32-14.4 32-32s-14.4-32-32-32z" />
<glyph unicode="&#xe602;" d="M859.2-64l-358.4 358.4-204.8-203.2-296 868.8 870.4-296-204.8-204.8 358.4-358.4-164.8-164.8zM500.8 384l358.4-358.4 73.6 73.6-358.4 360 177.6 177.6-649.6 220.8 220.8-648 177.6 174.4z" />
<glyph unicode="&#xe603;" d="M665.6 459.2l204.8 204.8-870.4 296 296-868.8 204.8 203.2 358.4-358.4 164.8 164.8z" />
<glyph unicode="&#xe604;" d="M417.6-64l-417.6 1024 1024-416-464-145.6-142.4-462.4zM116.8 843.2l292.8-716.8 99.2 323.2 326.4 102.4-718.4 291.2z" />
<glyph unicode="&#xe605;" d="M0 960l417.6-1024 142.4 462.4 464 145.6z" />
<glyph unicode="&#xe606;" d="M252.8 832l70.4-150.4-323.2 150.4 361.6-768 115.2 289.6 137.6-289.6 116.8 291.2 292.8 118.4-771.2 358.4zM356.8 224l-224 475.2 478.4-222.4-182.4-73.6-72-179.2zM681.6 403.2l-72-179.2-73.6 155.2 235.2 94.4-356.8 166.4-28.8 59.2 478.4-222.4-182.4-73.6z" />
<glyph unicode="&#xe607;" d="M252.8 832l70.4-150.4-323.2 150.4 361.6-768 115.2 289.6 137.6-289.6 116.8 291.2 292.8 118.4-771.2 358.4zM681.6 403.2l-72-179.2-73.6 155.2 235.2 94.4-356.8 166.4-28.8 59.2 478.4-222.4-182.4-73.6z" />
<glyph unicode="&#xe608;" d="M236.8 465.6l-236.8 494.4 507.2-224-193.6-80-76.8-190.4zM132.8 832l99.2-208 33.6 81.6 80 33.6-212.8 92.8zM1004.8 318.4l19.2 19.2-121.6 121.6c-12.8 12.8-32 12.8-44.8 0s-12.8-32 0-44.8l44.8-44.8h-246.4v244.8l43.2-43.2c12.8-12.8 32-12.8 44.8 0s12.8 32 0 44.8l-120 120-22.4-22.4c0 0 0 0 0 0l-97.6-97.6c-12.8-12.8-12.8-32 0-44.8 6.4-6.4 14.4-9.6 22.4-9.6s16 3.2 22.4 9.6l43.2 43.2v-246.4h-244.8l44.8 44.8c12.8 12.8 12.8 32 0 44.8s-32 12.8-44.8 0l-123.2-120 19.2-19.2c1.6-3.2 4.8-4.8 6.4-6.4l94.4-94.4c6.4-6.4 14.4-9.6 22.4-9.6s16 3.2 22.4 9.6c12.8 12.8 12.8 32 0 44.8l-41.6 41.6h244.8v-246.4l-43.2 43.2c-12.8 12.8-32 12.8-44.8 0s-12.8-32 0-44.8l97.6-97.6c0 0 0 0 0 0l22.4-22.4 22.4 22.4c0 0 0 0 0 0l97.6 97.6c12.8 12.8 12.8 32 0 44.8s-32 12.8-44.8 0l-43.2-41.6v244.8h244.8l-43.2-43.2c-12.8-12.8-12.8-32 0-44.8 6.4-6.4 14.4-9.6 22.4-9.6s16 3.2 22.4 9.6l94.4 94.4c3.2 1.6 4.8 4.8 8 8z" />
<glyph unicode="&#xe609;" d="M313.6 656l193.6 80-507.2 224 236.8-494.4zM1004.8 316.8l19.2 19.2-121.6 121.6c-12.8 12.8-32 12.8-44.8 0s-12.8-32 0-44.8l44.8-44.8h-246.4v244.8l43.2-43.2c12.8-12.8 32-12.8 44.8 0s12.8 32 0 44.8l-120 121.6-22.4-22.4c0 0 0 0 0 0l-97.6-97.6c-12.8-12.8-12.8-32 0-44.8 6.4-6.4 14.4-9.6 22.4-9.6s16 3.2 22.4 9.6l43.2 43.2v-246.4h-244.8l44.8 44.8c12.8 12.8 12.8 32 0 44.8s-32 12.8-44.8 0l-123.2-120 19.2-19.2c1.6-3.2 4.8-4.8 6.4-6.4l94.4-94.4c6.4-6.4 14.4-9.6 22.4-9.6s16 3.2 22.4 9.6c12.8 12.8 12.8 32 0 44.8l-41.6 41.6h244.8v-246.4l-43.2 43.2c-12.8 12.8-32 12.8-44.8 0s-12.8-32 0-44.8l97.6-97.6c0 0 0 0 0 0l22.4-22.4 120 120c12.8 12.8 12.8 32 0 44.8s-32 12.8-44.8 0l-43.2-43.2v246.4h244.8l-43.2-43.2c-12.8-12.8-12.8-32 0-44.8 6.4-6.4 14.4-9.6 22.4-9.6s16 3.2 22.4 9.6l94.4 94.4c3.2 1.6 6.4 4.8 8 6.4z" />
<glyph unicode="&#xe60a;" d="M352 320c-17.6 0-32-14.4-32-32 0-44.8-35.2-80-80-80-17.6 0-32-14.4-32-32s14.4-32 32-32c80 0 144 64 144 144 0 17.6-14.4 32-32 32zM864 288c0-44.8-35.2-80-80-80-17.6 0-32-14.4-32-32s14.4-32 32-32c80 0 144 64 144 144 0 17.6-14.4 32-32 32s-32-14.4-32-32zM1006.4 379.2c0 0 0 1.6 0 1.6l-169.6 372.8c-1.6 3.2-3.2 8-4.8 9.6v1.6c-27.2 51.2-80 83.2-136 83.2-76.8 0-140.8-57.6-150.4-131.2-22.4 3.2-44.8 3.2-67.2 0-9.6 73.6-73.6 131.2-150.4 131.2-56 0-108.8-32-136-83.2v0-1.6c-1.6-3.2-3.2-6.4-4.8-9.6l-168-372.8c0 0 0-1.6 0-1.6-12.8-27.2-19.2-59.2-19.2-91.2 0-132.8 107.2-240 240-240s240 107.2 240 240c0 0 0 0 0 0v171.2c20.8 4.8 43.2 4.8 64 0v-171.2c0 0 0 0 0 0 0-132.8 107.2-240 240-240s240 107.2 240 240c0 32-6.4 64-17.6 91.2zM240 112c-97.6 0-176 78.4-176 176s78.4 176 176 176 176-78.4 176-176-78.4-176-176-176zM240 528c-33.6 0-64-6.4-92.8-19.2l99.2 219.2c0 1.6 1.6 3.2 3.2 6.4v0c16 30.4 46.4 49.6 78.4 49.6 48 0 88-40 88-88v-20.8c0 0 0 0 0 0v-192c0 0 0 0 0 0v-32c-43.2 46.4-107.2 76.8-176 76.8zM480 524.8v126.4c20.8 4.8 43.2 4.8 64 0v-126.4c-20.8 3.2-43.2 3.2-64 0zM608 696c0 48 40 88 88 88 32 0 62.4-19.2 78.4-49.6 1.6-1.6 1.6-4.8 3.2-8l99.2-217.6c-28.8 12.8-59.2 19.2-92.8 19.2-68.8 0-132.8-30.4-176-76.8v244.8zM784 112c-97.6 0-176 78.4-176 176s78.4 176 176 176 176-78.4 176-176-78.4-176-176-176z" />
<glyph unicode="&#xe60b;" d="M320 288c0-44.8-35.2-80-80-80-17.6 0-32-14.4-32-32s14.4-32 32-32c80 0 144 64 144 144 0 17.6-14.4 32-32 32s-32-14.4-32-32zM864 288c0-44.8-35.2-80-80-80-17.6 0-32-14.4-32-32s14.4-32 32-32c80 0 144 64 144 144 0 17.6-14.4 32-32 32s-32-14.4-32-32zM1004.8 380.8v0l-168 372.8c-1.6 3.2-3.2 8-4.8 9.6v1.6c-27.2 51.2-80 83.2-136 83.2-76.8 0-140.8-57.6-150.4-131.2-22.4 3.2-44.8 3.2-67.2 0-9.6 73.6-73.6 131.2-150.4 131.2-56 0-108.8-32-136-83.2v0-1.6c-1.6-3.2-3.2-6.4-4.8-9.6l-168-372.8c-12.8-28.8-19.2-59.2-19.2-92.8 0-132.8 107.2-240 240-240s240 107.2 240 240v0 171.2c20.8 4.8 43.2 4.8 64 0v-171.2c0-132.8 107.2-240 240-240s240 107.2 240 240c0 33.6-6.4 64-19.2 92.8zM240 112c-97.6 0-176 78.4-176 176s78.4 176 176 176c97.6 0 176-78.4 176-176s-78.4-176-176-176zM784 112c-97.6 0-176 78.4-176 176s78.4 176 176 176c97.6 0 176-78.4 176-176s-78.4-176-176-176z" />
<glyph unicode="&#xe60c;" d="M243.2-62.4c-44.8 0-89.6 17.6-123.2 51.2l-68.8 68.8c-68.8 68.8-68.8 179.2 0 246.4l139.2 139.2c44.8 44.8 110.4 62.4 171.2 44.8 17.6-4.8 27.2-22.4 22.4-40s-22.4-27.2-40-22.4c-38.4 11.2-80 0-108.8-28.8l-139.2-139.2c-43.2-43.2-43.2-113.6 0-156.8l68.8-68.8c43.2-43.2 113.6-43.2 156.8 0l139.2 139.2c27.2 27.2 38.4 68.8 28.8 107.2-4.8 17.6 4.8 35.2 22.4 38.4 17.6 4.8 35.2-4.8 38.4-22.4 16-60.8-1.6-124.8-44.8-168l-139.2-139.2c-35.2-33.6-78.4-49.6-123.2-49.6zM708.8 403.2c-24 0-48 4.8-72 16-16 8-24 25.6-16 41.6s25.6 24 41.6 16c41.6-19.2 91.2-9.6 123.2 22.4l139.2 139.2c43.2 43.2 43.2 113.6 0 156.8l-68.8 68.8c-20.8 20.8-48 32-78.4 32-28.8 0-57.6-11.2-78.4-32l-139.2-139.2c-33.6-33.6-41.6-83.2-22.4-124.8 8-16 0-35.2-16-43.2s-35.2 0-43.2 16c-32 67.2-17.6 145.6 33.6 198.4l139.2 139.2c33.6 33.6 76.8 51.2 123.2 51.2s91.2-17.6 123.2-51.2l68.8-68.8c68.8-68.8 68.8-179.2 0-246.4l-139.2-139.2c-27.2-35.2-72-52.8-118.4-52.8zM241.6 512h-208c-17.6 0-32 14.4-32 32s14.4 32 32 32h206.4c17.6 0 32-14.4 32-32 1.6-17.6-12.8-32-30.4-32zM385.6 688c-17.6 0-32 14.4-32 32v208c0 17.6 14.4 32 32 32s32-14.4 32-32v-208c0-17.6-14.4-32-32-32zM257.6 640c-8 0-16 3.2-22.4 9.6l-147.2 147.2c-12.8 12.8-12.8 32 0 44.8s32 12.8 44.8 0l147.2-147.2c12.8-12.8 12.8-32 0-44.8-6.4-6.4-14.4-9.6-22.4-9.6zM992 320h-208c-17.6 0-32 14.4-32 32s14.4 32 32 32h208c17.6 0 32-14.4 32-32s-14.4-32-32-32zM640-62.4c-17.6 0-32 14.4-32 32v206.4c0 17.6 14.4 32 32 32s32-14.4 32-32v-208c0-17.6-14.4-30.4-32-30.4zM915.2 46.4c-8 0-16 3.2-22.4 9.6l-147.2 147.2c-12.8 12.8-12.8 32 0 44.8s32 12.8 44.8 0l147.2-147.2c12.8-12.8 12.8-32 0-44.8-6.4-6.4-14.4-9.6-22.4-9.6z" />
<glyph unicode="&#xe60d;" d="M288 256h-128c-88 0-160 72-160 160v64c0 88 72 160 160 160h128c57.6 0 110.4-30.4 139.2-80 9.6-16 3.2-35.2-11.2-43.2-16-9.6-35.2-3.2-43.2 11.2-17.6 30.4-49.6 48-83.2 48h-128c-52.8 0-96-43.2-96-96v-64c0-52.8 43.2-96 96-96h128c27.2 0 54.4 11.2 72 32 11.2 12.8 32 14.4 44.8 3.2s14.4-32 3.2-44.8c-32-35.2-75.2-54.4-121.6-54.4zM864 256h-128c-46.4 0-89.6 19.2-120 54.4-11.2 12.8-11.2 33.6 3.2 44.8 12.8 11.2 33.6 11.2 44.8-3.2 17.6-20.8 44.8-32 72-32h128c52.8 0 96 43.2 96 96v64c0 52.8-43.2 96-96 96h-128c-33.6 0-65.6-17.6-83.2-48-9.6-16-28.8-20.8-43.2-11.2-16 9.6-20.8 28.8-11.2 43.2 28.8 49.6 81.6 80 139.2 80h128c88 0 160-72 160-160v-64c-1.6-88-73.6-160-161.6-160zM368 656c-8 0-16 3.2-22.4 9.6l-144 144c-12.8 12.8-12.8 32 0 44.8s32 12.8 44.8 0l144-144c12.8-12.8 12.8-32 0-44.8-6.4-6.4-14.4-9.6-22.4-9.6zM656 656c-8 0-16 3.2-22.4 9.6-12.8 12.8-12.8 32 0 44.8l144 144c12.8 12.8 32 12.8 44.8 0s12.8-32 0-44.8l-144-144c-6.4-6.4-14.4-9.6-22.4-9.6zM512 672c-17.6 0-32 14.4-32 32v224c0 17.6 14.4 32 32 32s32-14.4 32-32v-224c0-17.6-14.4-32-32-32zM224 32c-8 0-16 3.2-22.4 9.6-12.8 12.8-12.8 32 0 44.8l144 144c12.8 12.8 32 12.8 44.8 0s12.8-32 0-44.8l-144-144c-6.4-6.4-14.4-9.6-22.4-9.6zM800 32c-8 0-16 3.2-22.4 9.6l-144 144c-12.8 12.8-12.8 32 0 44.8s32 12.8 44.8 0l144-144c12.8-12.8 12.8-32 0-44.8-6.4-6.4-14.4-9.6-22.4-9.6zM512-64c-17.6 0-32 14.4-32 32v224c0 17.6 14.4 32 32 32s32-14.4 32-32v-224c0-17.6-14.4-32-32-32z" />
<glyph unicode="&#xe60e;" d="M992 700.8h-960c-17.6 0-32-14.4-32-32s14.4-32 32-32h19.2l9.6-84.8v-3.2c6.4-32 28.8-57.6 57.6-67.2l49.6-361.6c8-43.2 41.6-91.2 96-91.2h494.4c51.2 0 88 44.8 96 91.2l52.8 361.6c28.8 9.6 51.2 33.6 57.6 67.2l9.6 88h17.6c17.6 0 32 14.4 32 32s-14.4 32-32 32zM790.4 129.6c-3.2-16-14.4-38.4-32-38.4h-494.4c-19.2 0-30.4 22.4-32 36.8l-48 347.2h657.6l-51.2-345.6zM900.8 560c-1.6-9.6-8-19.2-22.4-19.2h-731.2c-16 0-20.8 9.6-22.4 19.2l-8 76.8h793.6l-9.6-76.8z" />
<glyph unicode="&#xe60f;" d="M32 636.8h19.2l9.6-84.8v-3.2c6.4-32 28.8-57.6 57.6-67.2v-4.8h787.2v4.8c28.8 9.6 51.2 33.6 57.6 67.2l9.6 88h19.2c17.6 0 32 14.4 32 32s-14.4 32-32 32h-960c-17.6 0-32-14.4-32-32s14.4-32 32-32zM128 412.8l40-292.8c8-43.2 41.6-91.2 96-91.2h494.4c51.2 0 88 44.8 96 91.2l41.6 292.8h-768z" />
<glyph unicode="&#xe610;" d="M320-64c-105.6 0-192 86.4-192 192v448c0 70.4 57.6 128 128 128s128-57.6 128-128v-256c0-17.6-14.4-32-32-32s-32 14.4-32 32v256c0 35.2-28.8 64-64 64s-64-28.8-64-64v-448c0-70.4 57.6-128 128-128s128 57.6 128 128v576c0 105.6-86.4 192-192 192s-192-86.4-192-192v-384c0-17.6-14.4-32-32-32s-32 14.4-32 32v384c0 140.8 115.2 256 256 256s256-115.2 256-256v-576c0-105.6-86.4-192-192-192z" horiz-adv-x="512" />
<glyph unicode="&#xe611;" d="M204.8-64c-51.2 0-99.2 19.2-134.4 56-75.2 75.2-75.2 195.2 0 270.4l409.6 411.2c49.6 49.6 131.2 49.6 180.8 0s49.6-131.2 0-180.8l-276.8-275.2c-12.8-12.8-32-12.8-44.8 0s-12.8 32 0 44.8l275.2 275.2c25.6 25.6 25.6 65.6 0 89.6-25.6 25.6-65.6 25.6-89.6 0l-411.2-409.6c-49.6-49.6-49.6-131.2 0-180.8 24-24 56-36.8 89.6-36.8s65.6 12.8 89.6 36.8l532.8 532.8c36.8 36.8 56 84.8 56 134.4 0 51.2-19.2 99.2-56 134.4s-83.2 57.6-132.8 57.6c-51.2 0-99.2-19.2-134.4-56l-400-396.8c-12.8-12.8-32-12.8-44.8 0s-12.8 32 0 44.8l398.4 396.8c48 48 112 75.2 180.8 75.2v0c68.8 0 132.8-27.2 180.8-75.2s75.2-112 75.2-180.8c0-68.8-27.2-132.8-75.2-180.8l-534.4-531.2c-35.2-36.8-83.2-56-134.4-56z" horiz-adv-x="960" />
<glyph unicode="&#xe612;" d="M736 638.4v0l278.4 267.2c12.8 12.8 12.8 32 1.6 44.8-12.8 12.8-32 12.8-44.8 1.6l-292.8-280h-422.4v96h-192v-96h-64v-192h476.8l-220.8-212.8v148.8h-192v-384h480v-96h192v96h64v192h-64v324.8l-192-184v-140.8h-240l432 414.4z" />
<glyph unicode="&#xe613;" d="M1014.4 905.6c12.8 12.8 12.8 32 1.6 44.8-12.8 12.8-32 12.8-44.8 1.6l-292.8-280h-422.4v96h-192v-96h-64v-192h64v-448h480v-96h192v96h64v192h-64v414.4l278.4 267.2zM128 704h64v-32h-64v32zM64 608h547.2l-67.2-64h-480v64zM304 224l240 230.4v-230.4h-240zM256 267.2v212.8h222.4l-222.4-212.8zM672 0h-64v32h64v-32zM736 96h-608v384h64v-320h544v-64zM672 224h-64v291.2l64 60.8v-352z" />
<glyph unicode="&#xe614;" d="M832 192h-640v512h640v-512zM256 256h512v384h-512v-384zM128 640h-96c-17.6 0-32 14.4-32 32s14.4 32 32 32h96c17.6 0 32-14.4 32-32s-14.4-32-32-32zM128 192h-96c-17.6 0-32 14.4-32 32s14.4 32 32 32h96c17.6 0 32-14.4 32-32s-14.4-32-32-32zM992 640h-96c-17.6 0-32 14.4-32 32s14.4 32 32 32h96c17.6 0 32-14.4 32-32s-14.4-32-32-32zM800 736c-17.6 0-32 14.4-32 32v96c0 17.6 14.4 32 32 32s32-14.4 32-32v-96c0-17.6-14.4-32-32-32zM224 736c-17.6 0-32 14.4-32 32v96c0 17.6 14.4 32 32 32s32-14.4 32-32v-96c0-17.6-14.4-32-32-32zM800 0c-17.6 0-32 14.4-32 32v96c0 17.6 14.4 32 32 32s32-14.4 32-32v-96c0-17.6-14.4-32-32-32zM224 0c-17.6 0-32 14.4-32 32v96c0 17.6 14.4 32 32 32s32-14.4 32-32v-96c0-17.6-14.4-32-32-32zM992 192h-96c-17.6 0-32 14.4-32 32s14.4 32 32 32h96c17.6 0 32-14.4 32-32s-14.4-32-32-32z" />
<glyph unicode="&#xe615;" d="M1024-64h-139.2v64h75.2v75.2h64zM505.6 0h236.8v-64h-236.8v64zM363.2-64h-139.2v139.2h64v-75.2h75.2zM288 596.8h-64v139.2h139.2v-64h-75.2zM1024 596.8h-64v75.2h-75.2v64h139.2zM960 454.4h64v-236.8h-64v236.8zM0 960v-800h256v57.6h32v236.8h-64v-230.4h-160v672h672v-160h-230.4v-64h236.8v32h57.6v256z" />
<glyph unicode="&#xe616;" d="M980.8 867.2c-27.2 27.2-64 43.2-102.4 43.2s-75.2-14.4-102.4-43.2l-395.2-396.8c0 0 0 0 0 0s0 0 0 0l-120-120 38.4-38.4-299.2-297.6h409.6l134.4 134.4-38.4 38.4 475.2 475.2c57.6 56 57.6 147.2 0 204.8zM403.2 401.6l115.2-115.2-54.4-52.8-113.6 115.2 52.8 52.8zM384 78.4h-228.8l187.2 187.2 35.2-35.2-62.4-62.4c-12.8-12.8-12.8-32 0-44.8 6.4-6.4 14.4-9.6 22.4-9.6s16 3.2 22.4 9.6l62.4 62.4 35.2-35.2-73.6-72zM936 707.2l-372.8-374.4-115.2 115.2 374.4 372.8c16 16 35.2 24 57.6 24s41.6-8 57.6-24c30.4-30.4 30.4-83.2-1.6-113.6z" />
<glyph unicode="&#xe617;" d="M356.8 448l-97.6-97.6 38.4-38.4-297.6-297.6h409.6l134.4 134.4-38.4 38.4 56 56-204.8 204.8zM384 78.4h-228.8l187.2 187.2 35.2-35.2-62.4-62.4 44.8-44.8 62.4 62.4 35.2-35.2-73.6-72zM980.8 867.2c-27.2 27.2-64 43.2-102.4 43.2s-75.2-14.4-102.4-43.2l-372.8-374.4 204.8-204.8 374.4 374.4c56 56 56 147.2-1.6 204.8z" />
<glyph unicode="&#xe618;" d="M832-64h-832v832h256c17.6 0 32-14.4 32-32s-14.4-32-32-32h-192v-704h704v704h-192c-17.6 0-32 14.4-32 32s14.4 32 32 32h256v-832zM611.2 472c-12.8 11.2-33.6 9.6-44.8-3.2l-118.4-140.8v600c0 17.6-14.4 32-32 32s-32-14.4-32-32v-600l-118.4 139.2c-11.2 12.8-32 14.4-44.8 3.2s-14.4-32-3.2-44.8l198.4-233.6 200 235.2c11.2 12.8 9.6 33.6-4.8 44.8z" horiz-adv-x="832" />
<glyph unicode="&#xe619;" d="M864-64h-864v864h544c17.6 0 32-14.4 32-32s-14.4-32-32-32h-480v-736h736v480c0 17.6 14.4 32 32 32s32-14.4 32-32v-544zM918.4 718.4l105.6 105.6-136 136-443.2-443.2-97.6-233.6 233.6 97.6 337.6 337.6c0 0 0 0 0 0s0 0 0 0zM932.8 824l-36.8-36.8-44.8 44.8 38.4 38.4 43.2-46.4zM544 435.2l-76.8-32 32 76.8 305.6 305.6 44.8-44.8-305.6-305.6z" />
<glyph unicode="&#xe61a;" d="M400 336l193.6 81.6 430.4 430.4-112 112-430.4-430.4zM630.4 363.2l-11.2-4.8-193.6-81.6-144-59.2 59.2 144 81.6 193.6 4.8 11.2 233.6 233.6h-660.8v-864h864v660.8l-224-224z" />
<glyph unicode="&#xe61b;" d="M512 136c-288 0-489.6 281.6-497.6 294.4-8 11.2-8 25.6 0 36.8s209.6 292.8 497.6 292.8c288 0 489.6-281.6 497.6-294.4 8-11.2 8-25.6 0-36.8s-209.6-292.8-497.6-292.8zM80 448c48-60.8 216-248 432-248s384 187.2 432 248c-48 60.8-216 248-432 248s-384-187.2-432-248zM512 264c-105.6 0-192 86.4-192 192s86.4 192 192 192 192-86.4 192-192-86.4-192-192-192zM512 584c-70.4 0-128-57.6-128-128s57.6-128 128-128 128 57.6 128 128-57.6 128-128 128z" />
<glyph unicode="&#xe61c;" d="M1009.6 465.6c-8 12.8-209.6 294.4-497.6 294.4s-489.6-281.6-497.6-294.4l-12.8-17.6 12.8-17.6c8-12.8 209.6-294.4 497.6-294.4s489.6 281.6 497.6 294.4l12.8 17.6-12.8 17.6zM512 264c-105.6 0-192 86.4-192 192s86.4 192 192 192c105.6 0 192-86.4 192-192s-86.4-192-192-192z" />
<glyph unicode="&#xe61d;" d="M512 136c-288 0-489.6 281.6-497.6 294.4-8 11.2-8 25.6 0 36.8s209.6 292.8 497.6 292.8c288 0 489.6-281.6 497.6-294.4 8-11.2 8-25.6 0-36.8s-209.6-292.8-497.6-292.8zM80 448c48-60.8 216-248 432-248s384 187.2 432 248c-48 60.8-216 248-432 248s-384-187.2-432-248zM512 264c-105.6 0-192 86.4-192 192s86.4 192 192 192 192-86.4 192-192-86.4-192-192-192zM512 584c-70.4 0-128-57.6-128-128s57.6-128 128-128 128 57.6 128 128-57.6 128-128 128zM512 360c-52.8 0-96 43.2-96 96 0 17.6 4.8 33.6 12.8 48 9.6 16 28.8 20.8 43.2 11.2 16-9.6 20.8-28.8 11.2-43.2-3.2-4.8-4.8-9.6-4.8-16 0-17.6 14.4-32 32-32s32-14.4 32-32-12.8-32-30.4-32z" />
<glyph unicode="&#xe61e;" d="M1009.6 465.6c-8 12.8-209.6 294.4-497.6 294.4s-489.6-281.6-497.6-294.4l-12.8-17.6 12.8-17.6c8-12.8 209.6-294.4 497.6-294.4s489.6 281.6 497.6 294.4l12.8 17.6-12.8 17.6zM512 200c-216 0-384 187.2-432 248 48 60.8 216 248 432 248s384-187.2 432-248c-48-60.8-216-248-432-248zM512 648c-105.6 0-192-86.4-192-192s86.4-192 192-192 192 86.4 192 192-86.4 192-192 192zM512 360c-52.8 0-96 43.2-96 96 0 17.6 4.8 33.6 12.8 48 9.6 16 28.8 20.8 43.2 11.2 16-9.6 20.8-28.8 11.2-43.2-3.2-4.8-4.8-9.6-4.8-16 0-17.6 14.4-32 32-32s32-14.4 32-32c1.6-17.6-12.8-32-30.4-32z" />
<glyph unicode="&#xe61f;" d="M1019.2 400c-6.4 12.8-172.8 304-507.2 304s-500.8-291.2-507.2-304c-8-16-3.2-35.2 12.8-43.2s35.2-3.2 43.2 12.8c1.6 1.6 102.4 177.6 296 244.8-52.8-44.8-84.8-110.4-84.8-182.4 0-132.8 107.2-240 240-240s240 107.2 240 240c0 73.6-32 137.6-84.8 182.4 195.2-68.8 296-243.2 297.6-246.4 6.4-11.2 16-16 27.2-16 4.8 0 11.2 1.6 16 4.8 14.4 8 20.8 27.2 11.2 43.2zM688 432c0-97.6-78.4-176-176-176s-176 78.4-176 176 78.4 176 176 176 176-78.4 176-176zM579.2 355.2c-4.8 0-11.2 1.6-16 4.8-16 9.6-20.8 28.8-11.2 43.2 4.8 8 6.4 16 6.4 25.6 0 28.8-22.4 51.2-51.2 51.2-17.6 0-32 14.4-32 32s14.4 32 32 32c64 0 115.2-51.2 115.2-115.2 0-20.8-4.8-40-16-57.6-4.8-9.6-16-16-27.2-16z" />
<glyph unicode="&#xe620;" d="M1019.2 400c-6.4 12.8-172.8 304-507.2 304s-500.8-291.2-507.2-304c-8-16-3.2-35.2 12.8-43.2s35.2-3.2 43.2 12.8c1.6 1.6 102.4 177.6 296 244.8-52.8-44.8-84.8-110.4-84.8-182.4 0-132.8 107.2-240 240-240s240 107.2 240 240c0 73.6-32 137.6-84.8 182.4 195.2-68.8 296-243.2 297.6-246.4 6.4-11.2 16-16 27.2-16 4.8 0 11.2 1.6 16 4.8 14.4 8 20.8 27.2 11.2 43.2zM608 371.2c-6.4-9.6-16-16-27.2-16-4.8 0-11.2 1.6-16 4.8-16 9.6-20.8 28.8-11.2 43.2 4.8 8 6.4 16 6.4 25.6 0 28.8-22.4 51.2-51.2 51.2-17.6 0-32 14.4-32 32s14.4 32 32 32c64 0 115.2-51.2 115.2-115.2-1.6-20.8-6.4-40-16-57.6z" />
<glyph unicode="&#xe621;" d="M512 136c-334.4 0-492.8 284.8-500.8 296-4.8 9.6-4.8 20.8 0 30.4 8 12.8 166.4 297.6 500.8 297.6s492.8-284.8 500.8-296c4.8-9.6 4.8-20.8 0-30.4-8-12.8-166.4-297.6-500.8-297.6zM76.8 448c36.8-56 180.8-248 435.2-248s398.4 192 435.2 248c-36.8 56-180.8 248-435.2 248s-398.4-192-435.2-248zM512 216c-132.8 0-240 107.2-240 240s107.2 240 240 240 240-107.2 240-240-107.2-240-240-240zM512 632c-97.6 0-176-78.4-176-176s78.4-176 176-176 176 78.4 176 176-78.4 176-176 176zM515.2 344c-64 0-115.2 51.2-115.2 115.2 0 20.8 4.8 40 16 57.6 9.6 16 28.8 20.8 43.2 11.2 16-9.6 20.8-28.8 11.2-43.2-4.8-8-6.4-16-6.4-25.6 0-28.8 22.4-51.2 51.2-51.2 17.6 0 32-14.4 32-32s-14.4-32-32-32z" />
<glyph unicode="&#xe622;" d="M1012.8 464c-8 11.2-166.4 296-500.8 296s-492.8-284.8-500.8-296l-8-16 8-16c8-11.2 166.4-296 500.8-296s492.8 284.8 500.8 296l8 16-8 16zM512 200c-254.4 0-398.4 192-435.2 248 36.8 56 180.8 248 435.2 248s398.4-192 435.2-248c-36.8-56-180.8-248-435.2-248zM272 456c0-132.8 107.2-240 240-240s240 107.2 240 240-107.2 240-240 240-240-107.2-240-240zM414.4 516.8c9.6 16 28.8 20.8 43.2 11.2 16-9.6 20.8-28.8 11.2-43.2-4.8-8-6.4-16-6.4-25.6 0-28.8 22.4-51.2 51.2-51.2 17.6 0 32-14.4 32-32s-14.4-32-32-32c-64 0-115.2 51.2-115.2 115.2 1.6 20.8 6.4 40 16 57.6z" />
<glyph unicode="&#xe623;" d="M801.6 700.8c0 40-16 76.8-43.2 105.6-28.8 28.8-65.6 43.2-105.6 43.2s-76.8-16-105.6-43.2l-86.4-86.4-28.8 28.8c-12.8 12.8-32 12.8-44.8 0s-12.8-32 0-44.8l28.8-28.8-312-312c-35.2-35.2-51.2-88-40-136l-48-49.6c-22.4-22.4-22.4-57.6 0-78.4l36.8-36.8c11.2-11.2 24-16 40-16s28.8 6.4 40 16l49.6 49.6c9.6-1.6 20.8-3.2 30.4-3.2 0 0 0 0 0 0 40 0 76.8 16 105.6 43.2l307.2 312 28.8-28.8c6.4-6.4 14.4-9.6 22.4-9.6s16 3.2 22.4 9.6c12.8 12.8 12.8 32 0 44.8l-27.2 28.8 86.4 86.4c27.2 27.2 43.2 65.6 43.2 105.6zM270.4 198.4c-16-16-36.8-24-59.2-24-9.6 0-19.2 1.6-28.8 4.8l-19.2 6.4-70.4-70.4-24 24 70.4 70.4-6.4 19.2c-11.2 30.4-3.2 65.6 19.2 89.6l310.4 310.4 120-120-312-310.4zM712 640l-86.4-86.4-120 120 86.4 86.4c16 16 36.8 25.6 60.8 25.6 22.4 0 43.2-9.6 60.8-25.6s25.6-36.8 25.6-60.8c-1.6-22.4-11.2-43.2-27.2-59.2z" horiz-adv-x="800" />
<glyph unicode="&#xe624;" d="M801.6 700.8c0 40-16 76.8-43.2 105.6-28.8 28.8-65.6 43.2-105.6 43.2s-76.8-16-105.6-43.2l-86.4-86.4-28.8 28.8c-12.8 12.8-32 12.8-44.8 0s-12.8-32 0-44.8l28.8-28.8-312-312c-35.2-35.2-51.2-88-40-136l-48-49.6c-11.2-11.2-16-24-16-40 0-14.4 6.4-28.8 16-40l36.8-36.8c11.2-11.2 24-16 40-16 14.4 0 28.8 6.4 40 16l49.6 49.6c9.6-1.6 20.8-3.2 30.4-3.2 40 0 76.8 16 105.6 43.2l307.2 313.6 28.8-28.8c6.4-6.4 14.4-9.6 22.4-9.6s16 3.2 22.4 9.6c12.8 12.8 12.8 32 0 44.8l-27.2 28.8 86.4 86.4c27.2 27.2 43.2 65.6 43.2 105.6zM270.4 198.4c-22.4-22.4-59.2-30.4-89.6-19.2l-19.2 6.4-70.4-70.4-24 24 70.4 70.4-6.4 19.2c-11.2 30.4-3.2 65.6 19.2 89.6l310.4 310.4 120-120-310.4-310.4z" horiz-adv-x="800" />
<glyph unicode="&#xe625;" d="M512 128c-35.2 0-70.4 4.8-104 12.8-17.6 4.8-27.2 20.8-24 38.4 4.8 17.6 20.8 27.2 38.4 24 30.4-6.4 60.8-11.2 89.6-11.2 216 0 384 187.2 432 248-22.4 27.2-67.2 80-131.2 131.2-14.4 11.2-16 30.4-4.8 44.8s30.4 16 44.8 4.8c97.6-76.8 156.8-158.4 158.4-163.2 8-11.2 8-25.6 0-36.8-9.6-11.2-211.2-292.8-499.2-292.8zM512 256c-17.6 0-32 14.4-32 32s14.4 32 32 32c70.4 0 128 57.6 128 128 0 17.6 14.4 32 32 32s32-14.4 32-32c0-105.6-86.4-192-192-192zM1014.4 950.4c-12.8 12.8-32 12.8-44.8 0l-248-248c-70.4 33.6-140.8 49.6-209.6 49.6-288 0-489.6-281.6-497.6-294.4-8-11.2-8-25.6 0-36.8 3.2-4.8 86.4-121.6 220.8-206.4l-224-224c-12.8-12.8-12.8-32 0-44.8 4.8-6.4 12.8-9.6 20.8-9.6s16 3.2 22.4 9.6l254.4 254.4c0 0 0 0 0 0l339.2 339.2c0 0 0 0 0 0s0 0 0 0l366.4 366.4c12.8 12.8 12.8 32 0 44.8zM80 440c48 60.8 216 248 432 248 52.8 0 107.2-11.2 160-33.6l-49.6-49.6c-32 22.4-70.4 35.2-110.4 35.2-105.6 0-192-86.4-192-192 0-40 12.8-78.4 35.2-110.4l-75.2-75.2c-99.2 59.2-171.2 140.8-200 177.6zM401.6 382.4c-11.2 19.2-17.6 41.6-17.6 64 0 70.4 57.6 128 128 128 22.4 0 44.8-6.4 64-17.6l-174.4-174.4z" />
<glyph unicode="&#xe626;" d="M1014.4 950.4c-12.8 12.8-32 12.8-44.8 0l-249.6-248c-62.4 28.8-132.8 49.6-208 49.6-288 0-489.6-281.6-497.6-294.4l-12.8-17.6 12.8-17.6c4.8-8 88-121.6 219.2-206.4l-224-224c-12.8-12.8-12.8-32 0-44.8 6.4-8 14.4-11.2 22.4-11.2s16 3.2 22.4 9.6l960 960c12.8 12.8 12.8 32 0 44.8zM320 446.4c0 105.6 86.4 192 192 192 41.6 0 78.4-12.8 110.4-35.2l-267.2-267.2c-22.4 32-35.2 68.8-35.2 110.4zM833.6 633.6l-136-136c4.8-16 6.4-33.6 6.4-51.2 0-105.6-86.4-192-192-192-17.6 0-35.2 3.2-51.2 6.4l-107.2-107.2c49.6-17.6 102.4-28.8 158.4-28.8 288 0 489.6 281.6 497.6 294.4l12.8 17.6-12.8 17.6c-4.8 9.6-68.8 100.8-176 179.2z" />
<glyph unicode="&#xe627;" d="M1024 736v224h-224v-80h-576v80h-224v-224h80v-576h-80v-224h224v80h576v-80h224v224h-80v576h80zM864 896h96v-96h-96v96zM64 896h96v-96h-96v96zM160 0h-96v96h96v-96zM960 0h-96v96h96v-96zM880 160h-80v-80h-576v80h-80v576h80v80h576v-80h80v-576z" />
<glyph unicode="&#xe628;" d="M1024 736v224h-224v-80h-576v80h-224v-224h80v-576h-80v-224h224v80h576v-80h224v224h-80v576h80zM880 160h-80v-80h-576v80h-80v576h80v80h576v-80h80v-576z" />
<glyph unicode="&#xe629;" d="M608 736c-12.8 0-24-3.2-35.2-6.4-11.2 40-48 70.4-92.8 70.4-17.6 0-33.6-4.8-46.4-12.8-17.6 27.2-48 44.8-81.6 44.8s-64-17.6-81.6-44.8c-12.8 8-28.8 12.8-46.4 12.8-52.8 0-96-43.2-96-96v-166.4c-9.6 3.2-20.8 6.4-32 6.4-52.8 0-96-43.2-96-96v-64c0-107.2 102.4-227.2 107.2-232 35.2-41.6 86.4-88 161.6-88h243.2c105.6 0 192 86.4 192 192v384c0 52.8-43.2 96-96 96zM640 256c0-70.4-57.6-128-128-128h-244.8c-38.4 0-72 19.2-112 65.6-25.6 30.4-91.2 121.6-91.2 190.4v64c0 17.6 14.4 32 32 32s32-14.4 32-32v-22.4c0-17.6 14.4-32 32-32s32 14.4 32 32v278.4c0 17.6 14.4 32 32 32s32-14.4 32-32v-64c0-17.6 14.4-32 32-32s32 14.4 32 32v64c0 6.4-1.6 14.4-1.6 20.8 1.6 3.2 1.6 8 1.6 11.2 0 17.6 14.4 32 32 32s32-14.4 32-32v-128c0-17.6 14.4-32 32-32s32 14.4 32 32v96c0 17.6 14.4 32 32 32s32-14.4 32-32v-128c0-17.6 14.4-32 32-32s32 14.4 32 32v64c0 17.6 14.4 32 32 32s32-14.4 32-32v-384z" horiz-adv-x="704" />
<glyph unicode="&#xe62a;" d="M632 728c-38.4 0-70.4-32-70.4-70.4v70.4c0 38.4-32 70.4-70.4 70.4s-70.4-32-70.4-70.4v35.2c0 38.4-32 70.4-70.4 70.4s-70.4-32-70.4-70.4v-35.2c0 38.4-32 70.4-70.4 70.4s-70.4-32-70.4-70.4v-280c0 38.4-32 70.4-70.4 70.4s-70.4-32-70.4-70.4v-70.4c0-104 107.2-230.4 107.2-230.4 43.2-49.6 88-83.2 148.8-83.2h265.6c96 0 174.4 78.4 174.4 174.4v419.2c6.4 38.4-24 70.4-62.4 70.4z" horiz-adv-x="704" />
<glyph unicode="&#xe62b;" d="M840 697.6c-19.2 24-49.6 38.4-80 38.4-56 0-78.4-49.6-92.8-83.2l12.8 144c0 1.6 0 1.6 0 3.2 0 52.8-43.2 96-96 96-24 0-48-9.6-64-24-3.2 49.6-44.8 88-96 88-46.4 0-86.4-33.6-94.4-78.4-17.6 27.2-48 46.4-81.6 46.4-52.8 0-96-43.2-96-96 0-1.6 0-1.6 0-3.2l35.2-400c-24 46.4-81.6 64-128 41.6-22.4-11.2-40-32-48-56s-6.4-51.2 4.8-73.6c0 0 0-1.6 1.6-1.6l190.4-310.4c0 0 0 0 0 0s0 0 0 0c35.2-57.6 97.6-92.8 164.8-92.8h212.8c105.6 0 192 86.4 192 192v203.2l78.4 300.8c4.8 22.4-1.6 46.4-16 65.6zM713.6 344c0-3.2-1.6-4.8-1.6-8v-208c0-70.4-57.6-128-128-128h-212.8c-44.8 0-86.4 24-108.8 62.4 0 0 0 0 0 0l-188.8 308.8c-3.2 8-3.2 16-1.6 24 3.2 8 8 14.4 16 19.2 16 8 35.2 1.6 43.2-14.4 0-1.6 1.6-1.6 1.6-3.2l72-115.2c0 0 1.6-1.6 1.6-1.6s1.6-1.6 1.6-1.6 1.6-1.6 3.2-3.2c0 0 1.6-1.6 1.6-1.6 1.6-1.6 1.6-1.6 3.2-3.2 0 0 1.6 0 1.6-1.6 1.6 0 3.2-1.6 3.2-1.6s1.6 0 1.6 0 3.2 0 3.2-1.6c0 0 1.6 0 1.6 0 1.6 0 3.2 0 3.2 0s1.6 0 1.6 0c0 0 0 0 1.6 0s1.6 0 3.2 0 1.6 0 3.2 0 1.6 0 3.2 1.6c1.6 0 1.6 1.6 3.2 1.6 0 0 0 0 1.6 0 0 0 1.6 0 1.6 1.6 1.6 0 1.6 1.6 3.2 1.6 0 0 1.6 1.6 1.6 1.6s1.6 1.6 1.6 1.6c0 1.6 1.6 1.6 1.6 3.2s1.6 1.6 1.6 3.2c0 1.6 1.6 1.6 1.6 3.2s0 1.6 1.6 3.2c0 1.6 0 1.6 0 3.2s0 1.6 0 3.2 0 1.6 0 3.2c0 0 0 1.6 0 1.6l-48 532.8c0 17.6 14.4 30.4 32 30.4s32-14.4 32-32c0-1.6 0-3.2 0-4.8l48-320c3.2-16 17.6-28.8 33.6-27.2s30.4 14.4 30.4 32v353.6c0 17.6 14.4 32 32 32s32-14.4 32-32v-384c0-17.6 12.8-30.4 30.4-32s32 11.2 33.6 28.8l32 320c0 1.6 0 1.6 0 3.2 0 17.6 14.4 32 32 32s32-14.4 32-30.4l-32-350.4c-1.6-16 9.6-30.4 24-33.6 16-3.2 30.4 4.8 36.8 19.2l80 192c14.4 33.6 22.4 44.8 35.2 44.8 11.2 0 22.4-6.4 28.8-14.4 3.2-3.2 4.8-8 3.2-9.6l-76.8-305.6z" horiz-adv-x="864" />
<glyph unicode="&#xe62c;" d="M782.4 721.6c-38.4 0-52.8-33.6-68.8-68.8l-84.8-204.8 33.6 376c0 38.4-30.4 68.8-68.8 68.8s-68.8-30.4-68.8-68.8l-33.6-340.8v408c0 38.4-30.4 68.8-68.8 68.8s-68.8-30.4-68.8-68.8v-376l-49.6 342.4c0 38.4-30.4 68.8-68.8 68.8s-68.8-30.4-68.8-68.8l52.8-569.6-76.8 123.2c-17.6 33.6-57.6 46.4-91.2 30.4-33.6-17.6-48-57.6-30.4-91.2l201.6-331.2c30.4-51.2 84.8-83.2 145.6-83.2h225.6c94.4 0 171.2 76.8 171.2 171.2v220.8l84.8 324.8c8 35.2-30.4 68.8-67.2 68.8z" horiz-adv-x="864" />
<glyph unicode="&#xe62d;" d="M672 608c-12.8 0-24-3.2-35.2-6.4-11.2 40-48 70.4-92.8 70.4-17.6 0-33.6-4.8-46.4-12.8-17.6 27.2-48 44.8-81.6 44.8-11.2 0-22.4-1.6-32-6.4v166.4c0 52.8-43.2 96-96 96s-96-43.2-96-96v-454.4l-11.2 19.2c-11.2 22.4-30.4 38.4-54.4 46.4s-49.6 6.4-73.6-4.8c-48-24-65.6-81.6-43.2-129.6 0 0 0-1.6 1.6-1.6l188.8-310.4c0 0 0 0 0 0 35.2-57.6 97.6-92.8 164.8-92.8h211.2c105.6 0 192 86.4 192 192v384c0 52.8-43.2 96-96 96zM704 128c0-70.4-57.6-128-128-128h-211.2c-44.8 0-86.4 24-108.8 62.4 0 0 0 0 0 0l-188.8 308.8c-8 16 0 33.6 14.4 41.6 8 3.2 16 4.8 24 1.6s14.4-8 19.2-16c0-1.6 1.6-1.6 1.6-3.2l72-115.2c0 0 0 0 0 0 0-1.6 1.6-1.6 1.6-3.2 0 0 1.6-1.6 1.6-1.6s1.6-1.6 3.2-1.6c0 0 1.6-1.6 1.6-1.6 1.6 0 1.6-1.6 3.2-1.6s1.6-1.6 3.2-1.6c1.6 0 1.6 0 3.2-1.6 1.6 0 1.6 0 3.2-1.6 1.6 0 1.6 0 3.2 0s1.6 0 3.2 0c0 0 0 0 0 0s1.6 0 1.6 0 1.6 0 3.2 0 1.6 0 3.2 1.6c1.6 0 1.6 0 3.2 1.6 1.6 0 1.6 1.6 3.2 1.6 0 0 1.6 0 1.6 1.6 0 0 0 0 0 0 1.6 0 1.6 1.6 3.2 1.6 0 0 1.6 1.6 1.6 1.6s1.6 1.6 1.6 1.6c0 1.6 1.6 1.6 1.6 3.2 0 0 1.6 1.6 1.6 3.2s1.6 1.6 1.6 3.2c0 1.6 0 1.6 1.6 3.2 0 1.6 0 1.6 1.6 3.2 0 1.6 0 1.6 0 3.2s0 3.2 0 3.2c0 0 0 0 0 0v564.8c0 17.6 14.4 32 32 32s32-14.4 32-32v-352c0-17.6 14.4-32 32-32s32 14.4 32 32v96c0 17.6 14.4 32 32 32s32-14.4 32-32v-128c0-17.6 14.4-32 32-32s32 14.4 32 32v96c0 17.6 14.4 32 32 32s32-14.4 32-32v-128c0-17.6 14.4-32 32-32s32 14.4 32 32v64c0 17.6 14.4 32 32 32s32-14.4 32-32v-384z" horiz-adv-x="768" />
<glyph unicode="&#xe62e;" d="M691.2 584c-38.4 0-68.8-30.4-68.8-68.8v68.8c0 38.4-30.4 68.8-68.8 68.8s-68.8-30.4-68.8-68.8v33.6c0 38.4-30.4 68.8-68.8 68.8s-68.8-30.4-68.8-68.8v273.6c3.2 38.4-27.2 68.8-65.6 68.8s-68.8-30.4-68.8-68.8v-603.2l-76.8 123.2c-17.6 33.6-57.6 46.4-91.2 30.4-33.6-17.6-48-57.6-30.4-91.2l182.4-299.2 19.2-30.4c30.4-49.6 86.4-81.6 145.6-81.6h225.6c94.4 0 171.2 76.8 171.2 171.2v406.4c1.6 36.8-28.8 67.2-67.2 67.2z" horiz-adv-x="768" />
<glyph unicode="&#xe62f;" d="M1024 731.2l-184 184-88-86.4-25.6 25.6-569.6-571.2c-9.6-9.6-16-24-16-38.4v-51.2c0-9.6-3.2-17.6-12.8-27.2l-4.8-4.8c0 0 0 0 0 0s0 0 0 0l-123.2-123.2 57.6-57.6h177.6l40 40c9.6 9.6 17.6 12.8 27.2 12.8h52.8c14.4 0 27.2 4.8 36.8 16l569.6 569.6-25.6 25.6 88 86.4zM796.8 784l43.2 43.2 94.4-94.4-43.2-44.8-12.8 12.8-81.6 83.2zM404.8 150.4l-145.6 145.6 467.2 467.2 145.6-145.6-467.2-467.2zM145.6 94.4l49.6-49.6h-100.8l51.2 49.6zM350.4 96h-48c-24 0-41.6-8-52.8-16l-60.8 60.8c8 12.8 16 30.4 16 52.8v48l11.2 11.2 145.6-145.6-11.2-11.2z" />
<glyph unicode="&#xe630;" d="M950.4 654.4l64 64c12.8 12.8 12.8 32 0 44.8l-142.4 142.4c-12.8 12.8-32 12.8-44.8 0l-64-64 187.2-187.2zM930.904 584.223l-475.171-475.171-237.586 237.586 475.171 475.171 237.586-237.586zM172.8 300.8l-14.4-12.8c-9.6-11.2-16-25.6-16-38.4v-52.8c0-9.6-3.2-17.6-12.8-27.2s-107.2-107.2-107.2-107.2l-22.4-22.4 57.6-57.6h179.2l40 40c9.6 9.6 17.6 12.8 27.2 12.8h52.8c14.4 0 27.2 4.8 38.4 16l14.4 14.4-236.8 235.2z" />
<glyph unicode="&#xe631;" d="M172.8-64h-172.8v172.8l51.2 51.2h44.8v96h96v96h96v41.6l121.6 120c-51.2 120-25.6 259.2 68.8 352 59.2 60.8 140.8 94.4 225.6 94.4s166.4-33.6 225.6-94.4c124.8-124.8 124.8-328 0-452.8-59.2-59.2-139.2-92.8-225.6-92.8 0 0 0 0 0 0-43.2 0-84.8 8-124.8 25.6l-406.4-409.6zM64 0h83.2l420.8 422.4 20.8-11.2c35.2-17.6 75.2-27.2 115.2-27.2 68.8 0 132.8 27.2 180.8 75.2 99.2 99.2 99.2 262.4 0 361.6-48 48-112 75.2-180.8 75.2s-132.8-27.2-180.8-75.2c-78.4-78.4-97.6-200-46.4-299.2l11.2-20.8-136-132.8v-80h-96v-96h-96v-96h-83.2l-12.8-12.8v-83.2zM768 608c-25.6 0-49.6 9.6-67.2 28.8-36.8 36.8-36.8 97.6 0 136 17.6 17.6 41.6 28.8 67.2 28.8s49.6-9.6 67.2-28.8c36.8-36.8 36.8-97.6 0-136-17.6-19.2-41.6-28.8-67.2-28.8zM768 736c-8 0-16-3.2-22.4-9.6-12.8-12.8-12.8-32 0-44.8s33.6-12.8 44.8 0c12.8 12.8 12.8 32 0 44.8-6.4 6.4-14.4 9.6-22.4 9.6z" />
<glyph unicode="&#xe632;" d="M929.6 865.6c-59.2 60.8-140.8 94.4-225.6 94.4s-166.4-33.6-225.6-94.4c-92.8-92.8-120-232-68.8-352l-121.6-120v-41.6h-96v-96h-96v-96h-44.8l-51.2-51.2v-172.8h172.8l406.4 409.6c38.4-16 81.6-25.6 124.8-25.6 84.8 0 166.4 33.6 225.6 94.4 124.8 124.8 124.8 326.4 0 451.2zM835.2 636.8c-17.6-19.2-41.6-28.8-67.2-28.8s-49.6 9.6-67.2 28.8c-36.8 36.8-36.8 97.6 0 136 17.6 17.6 41.6 28.8 67.2 28.8s49.6-9.6 67.2-28.8c38.4-38.4 38.4-99.2 0-136z" />
<glyph unicode="&#xe633;" d="M112-57.6c-27.2 0-51.2 9.6-70.4 28.8-38.4 38.4-38.4 100.8 0 140.8l51.2 51.2-92.8 94.4 134.4 134.4 94.4-94.4 281.6 281.6c-43.2 99.2-20.8 219.2 56 296 51.2 51.2 118.4 78.4 190.4 78.4s139.2-27.2 190.4-78.4c51.2-51.2 78.4-118.4 78.4-190.4s-27.2-139.2-78.4-190.4c-51.2-51.2-118.4-78.4-190.4-78.4 0 0 0 0 0 0-36.8 0-73.6 8-107.2 22.4l-467.2-467.2c-19.2-17.6-43.2-28.8-70.4-28.8zM89.6 257.6l94.4-94.4-96-96c-14.4-14.4-14.4-36.8 0-51.2 12.8-12.8 36.8-12.8 51.2 0l499.2 499.2 20.8-11.2c30.4-16 64-24 97.6-24 0 0 0 0 0 0 54.4 0 105.6 20.8 145.6 60.8 38.4 38.4 60.8 89.6 60.8 145.6 0 54.4-20.8 107.2-60.8 145.6-38.4 38.4-89.6 60.8-145.6 60.8-54.4 0-107.2-20.8-145.6-60.8-64-64-78.4-163.2-35.2-243.2l11.2-20.8-358.4-360-94.4 94.4-44.8-44.8zM755.2 542.4c-38.4 0-73.6 14.4-100.8 41.6s-41.6 62.4-41.6 100.8c0 38.4 14.4 73.6 41.6 100.8s62.4 41.6 100.8 41.6c38.4 0 73.6-14.4 100.8-41.6 56-56 56-145.6 0-201.6-27.2-27.2-62.4-41.6-100.8-41.6zM755.2 763.2c-20.8 0-41.6-8-56-22.4s-22.4-35.2-22.4-56c0-20.8 8-41.6 22.4-56s35.2-22.4 56-22.4c20.8 0 41.6 8 56 22.4 30.4 30.4 30.4 81.6 0 112-14.4 14.4-35.2 22.4-56 22.4z" />
<glyph unicode="&#xe634;" d="M944 880c-51.2 51.2-120 80-192 80s-140.8-28.8-192-80c-78.4-78.4-100.8-198.4-57.6-300.8l-284.8-283.2-72 72c-12.8 12.8-32 12.8-44.8 0l-91.2-91.2c-6.4-4.8-9.6-12.8-9.6-22.4s3.2-16 9.6-22.4l72-72-52.8-52.8c-38.4-38.4-38.4-102.4 0-142.4 19.2-17.6 44.8-28.8 72-28.8s52.8 11.2 70.4 28.8l473.6 473.6c33.6-14.4 70.4-22.4 107.2-22.4v0c72 0 140.8 28.8 192 80 107.2 105.6 107.2 278.4 0 384zM854.4 585.6c-27.2-27.2-64-41.6-102.4-41.6s-75.2 14.4-102.4 41.6c-27.2 27.2-41.6 64-41.6 102.4s14.4 75.2 41.6 102.4c27.2 27.2 64 41.6 102.4 41.6s75.2-14.4 102.4-41.6c56-56 56-148.8 0-204.8z" />
<glyph unicode="&#xe635;" d="M926.4 808c0 40-16 78.4-44.8 107.2s-65.6 44.8-107.2 44.8c-40 0-78.4-16-107.2-44.8-19.2-19.2-32-43.2-38.4-67.2-27.2 20.8-59.2 32-92.8 32-40 0-78.4-16-107.2-44.8s-44.8-67.2-44.8-107.2 16-78.4 44.8-107.2c1.6-1.6 4.8-4.8 6.4-6.4l-65.6-65.6 67.2-67.2-435.2-433.6 102.4-102.4c6.4-6.4 14.4-9.6 22.4-9.6s16 3.2 22.4 9.6c12.8 12.8 12.8 32 0 44.8l-57.6 57.6 67.2 67.2 57.6-57.6c6.4-6.4 14.4-9.6 22.4-9.6s16 3.2 22.4 9.6c12.8 12.8 12.8 32 0 44.8l-57.6 57.6 276.8 276.8 67.2-67.2 72 72c28.8-27.2 65.6-43.2 105.6-43.2s78.4 16 107.2 44.8c28.8 28.8 44.8 67.2 44.8 107.2s-16 78.4-44.8 107.2c-1.6 1.6-4.8 4.8-6.4 6.4 20.8 8 38.4 19.2 54.4 35.2 30.4 30.4 46.4 68.8 46.4 108.8zM472 790.4c16 16 38.4 25.6 62.4 25.6s46.4-9.6 62.4-25.6c33.6-33.6 33.6-89.6 0-124.8-16-16-38.4-25.6-62.4-25.6s-46.4 9.6-62.4 25.6c-16 16-25.6 38.4-25.6 62.4s9.6 44.8 25.6 62.4zM459.2 548.8l32 32c12.8-3.2 27.2-6.4 41.6-6.4s28.8 1.6 43.2 6.4c-1.6-9.6-3.2-19.2-3.2-30.4 0-19.2 3.2-36.8 9.6-54.4l-36.8-36.8-86.4 89.6zM788.8 489.6c-16-16-38.4-25.6-62.4-25.6s-46.4 9.6-62.4 25.6c-16 16-25.6 38.4-25.6 62.4s9.6 44.8 25.6 62.4c16 16 38.4 25.6 62.4 25.6s44.8-9.6 62.4-25.6c16-16 25.6-38.4 25.6-62.4s-9.6-44.8-25.6-62.4zM836.8 745.6c-16-16-38.4-25.6-62.4-25.6s-44.8 9.6-62.4 25.6c-33.6 33.6-33.6 89.6 0 124.8 16 16 38.4 25.6 62.4 25.6s46.4-9.6 62.4-25.6c16-16 25.6-38.4 25.6-62.4s-9.6-46.4-25.6-62.4z" horiz-adv-x="928" />
<glyph unicode="&#xe636;" d="M512-64c-281.6 0-512 230.4-512 512s230.4 512 512 512 512-230.4 512-512c0-281.6-230.4-512-512-512zM512 896c-246.4 0-448-201.6-448-448s201.6-448 448-448 448 201.6 448 448-201.6 448-448 448zM652.8 160h-281.6l36.8 289.6c-44.8 33.6-72 86.4-72 142.4 0 97.6 78.4 176 176 176s176-78.4 176-176c0-56-27.2-108.8-72-142.4l36.8-289.6zM444.8 224h136l-32 259.2 19.2 11.2c35.2 19.2 57.6 57.6 57.6 97.6 0 62.4-49.6 112-112 112s-112-49.6-112-112c0-41.6 22.4-78.4 57.6-97.6l19.2-11.2-33.6-259.2z" />
<glyph unicode="&#xe637;" d="M512 960c-281.6 0-512-230.4-512-512s230.4-512 512-512c281.6 0 512 230.4 512 512s-230.4 512-512 512zM616 192h-208l35.2 273.6c-44.8 24-75.2 72-75.2 126.4 0 80 64 144 144 144s144-64 144-144c0-54.4-30.4-102.4-75.2-126.4l35.2-273.6z" />
<glyph unicode="&#xe638;" d="M652.8 160h-281.6l36.8 289.6c-44.8 33.6-72 86.4-72 142.4 0 97.6 78.4 176 176 176s176-78.4 176-176c0-56-27.2-108.8-72-142.4l36.8-289.6zM444.8 224h136l-32 259.2 19.2 11.2c35.2 19.2 57.6 57.6 57.6 97.6 0 62.4-49.6 112-112 112s-112-49.6-112-112c0-41.6 22.4-78.4 57.6-97.6l19.2-11.2-33.6-259.2zM856-64h-688c-92.8 0-168 75.2-168 168v688c0 92.8 75.2 168 168 168h686.4c94.4 0 169.6-75.2 169.6-168v-688c0-92.8-75.2-168-168-168zM168 896c-57.6 0-104-46.4-104-104v-688c0-57.6 46.4-104 104-104h686.4c57.6 0 104 46.4 104 104v688c1.6 57.6-44.8 104-102.4 104h-688z" />
<glyph unicode="&#xe639;" d="M856 960h-688c-92.8 0-168-75.2-168-168v-688c0-92.8 75.2-168 168-168h686.4c94.4 0 169.6 75.2 169.6 168v688c0 92.8-75.2 168-168 168zM616 192h-208l35.2 273.6c-44.8 24-75.2 72-75.2 126.4 0 80 64 144 144 144s144-64 144-144c0-54.4-30.4-102.4-75.2-126.4l35.2-273.6z" />
<glyph unicode="&#xe63a;" d="M652.8 160h-281.6l36.8 289.6c-44.8 33.6-72 86.4-72 142.4 0 97.6 78.4 176 176 176s176-78.4 176-176c0-56-27.2-108.8-72-142.4l36.8-289.6zM444.8 224h136l-32 259.2 19.2 11.2c35.2 19.2 57.6 57.6 57.6 97.6 0 62.4-49.6 112-112 112s-112-49.6-112-112c0-41.6 22.4-78.4 57.6-97.6l19.2-11.2-33.6-259.2zM1024-64h-1024v1024h1024v-1024zM64 0h896v896h-896v-896z" />
<glyph unicode="&#xe63b;" d="M0 960v-1024h1024v1024h-1024zM616 192h-208l35.2 273.6c-44.8 24-75.2 72-75.2 126.4 0 80 64 144 144 144s144-64 144-144c0-54.4-30.4-102.4-75.2-126.4l35.2-273.6z" />
<glyph unicode="&#xe63c;" d="M800 736v224h-800v-800h224v-224h800v800h-224zM64 224v672h672v-160h-512v-512h-160zM960 0h-672v672h672v-672z" />
<glyph unicode="&#xe63d;" d="M224 736h800v-800h-800v800zM800 960h-800v-800h160v640h640z" />
<glyph unicode="&#xe63e;" d="M800 328l224 118.4-227.2 120 227.2 121.6-512 272-512-272 227.2-120-227.2-121.6 224-118.4-224-120 512-272 512 272-224 120zM512 886.4l376-198.4-174.4-92.8c0 0 0 0 0 0l-201.6-107.2-201.6 107.2c0 0 0 0 0 0l-174.4 92.8 376 198.4zM296 531.2l216-115.2 216 115.2 160-84.8-171.2-91.2c0 0 0 0 0 0l-204.8-108.8-204.8 108.8c0 0 0 0 0 0l-171.2 91.2 160 84.8zM136 208l156.8 83.2 219.2-116.8 219.2 116.8 156.8-83.2-376-198.4-376 198.4z" />
<glyph unicode="&#xe63f;" d="M512 417.6l430.4 227.2 83.2 43.2-513.6 272-513.6-272 83.2-44.8zM512 344l-352 187.2-161.6-84.8 84.8-43.2 428.8-228.8 430.4 227.2 83.2 44.8-161.6 84.8zM512 102.4l-355.2 188.8-158.4-83.2 513.6-272 513.6 272-158.4 83.2z" />
<glyph unicode="&#xe640;" d="M1024 864h-768v-160h-128v-160h-128v-512h768v160h128v160h128v512zM704 96h-640v384h64v-288h576v-96zM832 256h-640v384h64v-288h576v-96zM960 416h-640v384h640v-384z" />
<glyph unicode="&#xe641;" d="M192 288v416h-64v-512h768v96zM64 128v416h-64v-512h768v96zM256 864v-512h768v512z" />
<glyph unicode="&#xe642;" d="M62.4-64l126.4 480h-188.8l134.4 544h430.4l-177.6-320h220.8l-545.6-704zM81.6 480h190.4l-67.2-256 272 352h-198.4l177.6 320h-272l-102.4-416z" horiz-adv-x="608" />
<glyph unicode="&#xe643;" d="M608 640h-220.8l177.6 320h-430.4l-134.4-544h188.8l-126.4-480z" horiz-adv-x="608" />
<glyph unicode="&#xe644;" d="M259.2-62.4l76.8 416h-340.8l467.2 604.8-51.2-348.8h329.6l-481.6-672zM124.8 417.6h286.4l-36.8-209.6 241.6 337.6h-278.4l25.6 179.2-238.4-307.2z" horiz-adv-x="736" />
<glyph unicode="&#xe645;" d="M740.8 609.6h-329.6l51.2 348.8-467.2-604.8h340.8l-76.8-416z" horiz-adv-x="736" />
<glyph unicode="&#xe646;" d="M864 656h-160c-88 0-160-72-160-160v-16h-64v16c0 88-72 160-160 160h-160c-88 0-160-72-160-160v-96c0-88 72-160 160-160h160c88 0 160 72 160 160v16h64v-16c0-88 72-160 160-160h160c88 0 160 72 160 160v96c0 88-72 160-160 160zM416 400c0-52.8-43.2-96-96-96h-160c-52.8 0-96 43.2-96 96v96c0 52.8 43.2 96 96 96h160c52.8 0 96-43.2 96-96v-16h-160c-17.6 0-32-14.4-32-32s14.4-32 32-32h160v-16zM960 400c0-52.8-43.2-96-96-96h-160c-52.8 0-96 43.2-96 96v16h160c17.6 0 32 14.4 32 32s-14.4 32-32 32h-160v16c0 52.8 43.2 96 96 96h160c52.8 0 96-43.2 96-96v-96z" />
<glyph unicode="&#xe647;" d="M972.8 817.6l-91.2 91.2c-33.6 33.6-76.8 51.2-124.8 51.2s-91.2-17.6-124.8-51.2l-136-136c-33.6-33.6-51.2-76.8-51.2-124.8 0-46.4 17.6-91.2 51.2-124.8l24-24-60.8-60.8-24 24c-33.6 33.6-76.8 51.2-124.8 51.2-46.4 0-91.2-17.6-124.8-51.2l-136-136c-32-32-49.6-76.8-49.6-123.2s17.6-91.2 51.2-124.8l91.2-91.2c33.6-33.6 76.8-51.2 124.8-51.2s91.2 17.6 124.8 51.2l136 136c33.6 33.6 51.2 76.8 51.2 124.8 0 46.4-17.6 91.2-51.2 124.8l-22.4 22.4 60.8 60.8 22.4-22.4c33.6-33.6 76.8-51.2 124.8-51.2s91.2 17.6 124.8 51.2l136 136c67.2 68.8 67.2 179.2-1.6 248zM513.6 248c0-30.4-11.2-57.6-33.6-80l-136-136c-20.8-20.8-49.6-33.6-80-33.6s-57.6 11.2-80 33.6l-91.2 91.2c-17.6 20.8-28.8 49.6-28.8 80s11.2 57.6 33.6 80l136 136c20.8 20.8 49.6 33.6 80 33.6s57.6-11.2 80-33.6l22.4-24-147.2-147.2c-12.8-12.8-12.8-32 0-44.8 6.4-6.4 14.4-9.6 22.4-9.6s16 3.2 22.4 9.6l147.2 147.2 22.4-22.4c19.2-22.4 30.4-49.6 30.4-80zM928 614.4l-136-136c-20.8-20.8-49.6-33.6-80-33.6s-57.6 11.2-80 33.6l-22.4 22.4 147.2 147.2c12.8 12.8 12.8 32 0 44.8s-32 12.8-44.8 0l-147.2-147.2-24 24c-20.8 20.8-33.6 49.6-33.6 78.4 0 30.4 11.2 57.6 33.6 80l136 136c20.8 20.8 49.6 33.6 80 33.6s57.6-11.2 78.4-33.6l91.2-91.2c44.8-43.2 44.8-115.2 1.6-158.4z" />
<glyph unicode="&#xe648;" d="M832 211.2h-256c-105.6 0-192 86.4-192 192 0 12.8 1.6 25.6 3.2 38.4 3.2 17.6 20.8 28.8 38.4 25.6s28.8-20.8 25.6-38.4c-1.6-8-3.2-17.6-3.2-25.6 0-70.4 57.6-128 128-128h256c70.4 0 128 57.6 128 128s-57.6 128-128 128h-160c-17.6 0-32 14.4-32 32s14.4 32 32 32h160c105.6 0 192-86.4 192-192 0-107.2-86.4-192-192-192zM352 211.2h-160c-105.6 0-192 86.4-192 192s86.4 192 192 192h256c105.6 0 192-86.4 192-192 0-12.8-1.6-25.6-3.2-38.4-3.2-17.6-20.8-28.8-38.4-25.6s-28.8 20.8-25.6 38.4c1.6 8 3.2 17.6 3.2 25.6 0 70.4-57.6 128-128 128h-256c-70.4 0-128-57.6-128-128s57.6-128 128-128h160c17.6 0 32-14.4 32-32s-14.4-32-32-32z" />
<glyph unicode="&#xe649;" d="M568 273.6c-59.2 0-118.4 22.4-163.2 67.2-11.2 11.2-20.8 22.4-28.8 35.2-9.6 14.4-6.4 35.2 9.6 44.8 14.4 9.6 35.2 6.4 44.8-9.6 6.4-9.6 12.8-17.6 20.8-25.6 65.6-65.6 171.2-65.6 235.2 0l225.6 225.6c64 65.6 64 171.2-1.6 236.8-64 64-169.6 64-235.2-1.6l-140.8-140.8c-12.8-12.8-32-12.8-44.8 0s-12.8 32 0 44.8l140.8 140.8c89.6 89.6 236.8 89.6 326.4 0s89.6-236.8 0-326.4l-225.6-224c-44.8-44.8-104-67.2-163.2-67.2zM230.4-64c-62.4 0-120 24-163.2 67.2-89.6 89.6-89.6 236.8 0 326.4l225.6 225.6c89.6 89.6 236.8 89.6 326.4 0 11.2-11.2 20.8-22.4 28.8-35.2 9.6-14.4 6.4-35.2-9.6-44.8-14.4-9.6-35.2-6.4-44.8 9.6-6.4 9.6-12.8 17.6-20.8 25.6-65.6 65.6-171.2 65.6-235.2 0l-224-225.6c-65.6-65.6-65.6-171.2 0-235.2 32-32 73.6-49.6 118.4-49.6s86.4 17.6 118.4 49.6l140.8 140.8c12.8 12.8 32 12.8 44.8 0s12.8-32 0-44.8l-140.8-140.8c-44.8-44.8-102.4-68.8-164.8-68.8z" />
<glyph unicode="&#xe64a;" d="M736 512h-112v208c0 132.8-107.2 240-240 240s-240-107.2-240-240v-208h-112c-17.6 0-32-14.4-32-32v-512c0-17.6 14.4-32 32-32h704c17.6 0 32 14.4 32 32v512c0 17.6-14.4 32-32 32zM208 720c0 97.6 78.4 176 176 176s176-78.4 176-176v-208h-352v208zM704 0h-640v448h640v-448zM384 112c-17.6 0-32 14.4-32 32v160c0 17.6 14.4 32 32 32s32-14.4 32-32v-160c0-17.6-14.4-32-32-32z" horiz-adv-x="768" />
<glyph unicode="&#xe64b;" d="M624 512v208c0 132.8-107.2 240-240 240s-240-107.2-240-240v-208h-144v-576h768v576h-144zM416 144c0-17.6-14.4-32-32-32s-32 14.4-32 32v160c0 17.6 14.4 32 32 32s32-14.4 32-32v-160zM560 512h-352v208c0 97.6 78.4 176 176 176s176-78.4 176-176v-208z" horiz-adv-x="768" />
<glyph unicode="&#xe64c;" d="M384 112c-17.6 0-32 14.4-32 32v160c0 17.6 14.4 32 32 32s32-14.4 32-32v-160c0-17.6-14.4-32-32-32zM640 512h-16v208c0 132.8-107.2 240-240 240s-240-107.2-240-240v-208h-16c-70.4 0-128-57.6-128-128v-320c0-70.4 57.6-128 128-128h512c70.4 0 128 57.6 128 128v320c0 70.4-57.6 128-128 128zM208 720c0 97.6 78.4 176 176 176s176-78.4 176-176v-208h-352v208zM704 64c0-35.2-28.8-64-64-64h-512c-35.2 0-64 28.8-64 64v320c0 35.2 28.8 64 64 64h512c35.2 0 64-28.8 64-64v-320z" horiz-adv-x="768" />
<glyph unicode="&#xe64d;" d="M640 512h-16v208c0 132.8-107.2 240-240 240s-240-107.2-240-240v-208h-16c-70.4 0-128-57.6-128-128v-320c0-70.4 57.6-128 128-128h512c70.4 0 128 57.6 128 128v320c0 70.4-57.6 128-128 128zM208 720c0 97.6 78.4 176 176 176s176-78.4 176-176v-208h-352v208zM416 144c0-17.6-14.4-32-32-32s-32 14.4-32 32v160c0 17.6 14.4 32 32 32s32-14.4 32-32v-160z" horiz-adv-x="768" />
<glyph unicode="&#xe64e;" d="M352 176c-17.6 0-32 14.4-32 32v160c0 17.6 14.4 32 32 32s32-14.4 32-32v-160c0-17.6-14.4-32-32-32zM592 545.6v174.4c0 132.8-107.2 240-240 240s-240-107.2-240-240v-174.4c-68.8-64-112-155.2-112-257.6 0-193.6 158.4-352 352-352s352 158.4 352 352c0 100.8-43.2 193.6-112 257.6zM176 720c0 97.6 78.4 176 176 176s176-78.4 176-176v-128c-51.2 30.4-112 48-176 48s-124.8-17.6-176-48v128zM352 0c-158.4 0-288 129.6-288 288s129.6 288 288 288 288-129.6 288-288-129.6-288-288-288z" horiz-adv-x="704" />
<glyph unicode="&#xe64f;" d="M592 545.6v174.4c0 132.8-107.2 240-240 240s-240-107.2-240-240v-174.4c-68.8-64-112-155.2-112-257.6 0-193.6 158.4-352 352-352s352 158.4 352 352c0 100.8-43.2 193.6-112 257.6zM176 720c0 97.6 78.4 176 176 176s176-78.4 176-176v-128c-51.2 30.4-112 48-176 48s-124.8-17.6-176-48v128zM384 208c0-17.6-14.4-32-32-32s-32 14.4-32 32v160c0 17.6 14.4 32 32 32s32-14.4 32-32v-160z" horiz-adv-x="704" />
<glyph unicode="&#xe650;" d="M592 545.6v174.4c0 132.8-107.2 240-240 240s-240-107.2-240-240v-174.4c-68.8-64-112-155.2-112-257.6 0-193.6 158.4-352 352-352s352 158.4 352 352c0 100.8-43.2 193.6-112 257.6zM176 720c0 97.6 78.4 176 176 176s176-78.4 176-176v-128c-51.2 30.4-112 48-176 48s-124.8-17.6-176-48v128zM352 0c-158.4 0-288 129.6-288 288s129.6 288 288 288 288-129.6 288-288-129.6-288-288-288zM576 320h-67.2c-12.8 62.4-62.4 112-124.8 124.8v67.2h-64v-67.2c-62.4-12.8-112-62.4-124.8-124.8h-67.2v-64h67.2c12.8-62.4 62.4-112 124.8-124.8v-67.2h64v67.2c62.4 12.8 112 62.4 124.8 124.8h67.2v64zM352 192c-52.8 0-96 43.2-96 96s43.2 96 96 96 96-43.2 96-96-43.2-96-96-96z" horiz-adv-x="704" />
<glyph unicode="&#xe651;" d="M352 384c-52.8 0-96-43.2-96-96s43.2-96 96-96 96 43.2 96 96c0 52.8-43.2 96-96 96zM592 545.6v174.4c0 132.8-107.2 240-240 240s-240-107.2-240-240v-174.4c-68.8-64-112-155.2-112-257.6 0-193.6 158.4-352 352-352s352 158.4 352 352c0 100.8-43.2 193.6-112 257.6zM176 720c0 97.6 78.4 176 176 176s176-78.4 176-176v-128c-51.2 30.4-112 48-176 48s-124.8-17.6-176-48v128zM576 256h-67.2c-12.8-62.4-62.4-112-124.8-124.8v-67.2h-64v67.2c-62.4 12.8-112 62.4-124.8 124.8h-67.2v64h67.2c12.8 62.4 62.4 112 124.8 124.8v67.2h64v-67.2c62.4-12.8 112-62.4 124.8-124.8h67.2v-64z" horiz-adv-x="704" />
<glyph unicode="&#xe652;" d="M416 0h-48v-64h112v112h-64zM190.4 0h99.2v-64h-99.2v64zM64 48h-64v-112h112v64h-48zM0 225.6h64v-99.2h-64v99.2zM0 304h64v48h48v64h-112zM416 304h64v112h-112v-64h48zM128 960v-896h896v896h-896zM960 128h-480v97.6h-64v-97.6h-224v224h97.6v64h-97.6v480h768v-768zM544 448c8 0 16 3.2 22.4 9.6l265.6 265.6v-115.2c0-17.6 14.4-32 32-32s32 14.4 32 32v224h-224c-17.6 0-32-14.4-32-32s14.4-32 32-32h115.2l-265.6-265.6c-12.8-12.8-12.8-32 0-44.8 6.4-6.4 14.4-9.6 22.4-9.6z" />
<glyph unicode="&#xe653;" d="M416 0h-32v-64h96v96h-64zM168 0h144v-64h-144v64zM64 32h-64v-96h96v64h-32zM0 248h64v-144h-64v144zM0 320h64v32h32v64h-96zM128 960v-896h896v896h-896zM312 352h-144v64h144v-64zM480 104h-64v144h64v-144zM480 320h-64v32h-32v64h96v-96zM521.6 502.4l265.6 265.6h-115.2c-17.6 0-32 14.4-32 32s14.4 32 32 32h224v-224c0-17.6-14.4-32-32-32s-32 14.4-32 32v115.2l-265.6-265.6c-12.8-12.8-32-12.8-44.8 0s-12.8 32 0 44.8z" />
<glyph unicode="&#xe654;" d="M416 0h-48v-64h112v112h-64zM190.4 0h99.2v-64h-99.2v64zM64 48h-64v-112h112v64h-48zM0 225.6h64v-99.2h-64v99.2zM0 304h64v48h48v64h-112zM416 304h64v112h-112v-64h48zM128 960v-896h896v896h-896zM960 128h-480v97.6h-64v-97.6h-224v224h97.6v64h-97.6v480h768v-768zM736 448c17.6 0 32 14.4 32 32s-14.4 32-32 32h-115.2l265.6 265.6c12.8 12.8 12.8 32 0 44.8s-32 12.8-44.8 0l-265.6-265.6v115.2c0 17.6-14.4 32-32 32s-32-14.4-32-32v-224h224z" />
<glyph unicode="&#xe655;" d="M416 0h-32v-64h96v96h-64zM168 0h144v-64h-144v64zM64 32h-64v-96h96v64h-32zM0 248h64v-144h-64v144zM0 320h64v32h32v64h-96zM128 960v-896h896v896h-896zM312 352h-144v64h144v-64zM480 104h-64v144h64v-144zM480 320h-64v32h-32v64h96v-96zM886.4 777.6l-265.6-265.6h115.2c17.6 0 32-14.4 32-32s-14.4-32-32-32h-224v224c0 17.6 14.4 32 32 32s32-14.4 32-32v-115.2l265.6 265.6c12.8 12.8 32 12.8 44.8 0s12.8-33.6 0-44.8z" />
<glyph unicode="&#xe656;" d="M875.2 593.6c-12.8 12.8-32 12.8-44.8 0s-12.8-32 0-44.8l72-72h-358.4v360l68.8-68.8c12.8-12.8 32-12.8 44.8 0s12.8 32 0 44.8l-145.6 147.2-22.4-22.4c0 0 0 0 0 0l-123.2-123.2c-12.8-12.8-12.8-32 0-44.8 6.4-6.4 14.4-9.6 22.4-9.6s16 3.2 22.4 9.6l68.8 68.8v-360h-358.4l70.4 72c12.8 12.8 12.8 32 0 44.8s-32 12.8-44.8 0l-144-147.2 17.6-17.6c3.2-6.4 8-9.6 12.8-12.8l115.2-115.2c6.4-6.4 14.4-9.6 22.4-9.6s16 3.2 22.4 9.6c12.8 12.8 12.8 32 0 44.8l-67.2 67.2h353.6v-355.2l-68.8 68.8c-12.8 12.8-32 12.8-44.8 0s-12.8-32 0-44.8l145.6-147.2 22.4 22.4c0 0 0 0 0 0l123.2 123.2c12.8 12.8 12.8 32 0 44.8s-32 12.8-44.8 0l-68.8-68.8v355.2h353.6l-67.2-67.2c-12.8-12.8-12.8-32 0-44.8 6.4-6.4 14.4-9.6 22.4-9.6s16 3.2 22.4 9.6l115.2 115.2c6.4 3.2 9.6 8 12.8 12.8l17.6 17.6-145.6 147.2z" />
<glyph unicode="&#xe657;" d="M804.8 243.2h-156.8l236.8 236.8c0 0 0 0 0 0s0 0 0 0l118.4 116.8-166.4 169.6-377.6-377.6-64-145.6h-176l-219.2-307.2h1024l-219.2 307.2zM740.8 582.4l80-80-212.8-211.2-80 80 212.8 211.2zM916.8 600l-52.8-52.8-80 80 52.8 52.8 80-80zM496 318.4l59.2-59.2-107.2-48 48 107.2zM251.2 182.4h116.8l-40-91.2 208 91.2h238.4l131.2-184h-785.6l131.2 184z" />
<glyph unicode="&#xe658;" d="M900.8 548.8l78.4 78.4-129.6 128-76.8-78.4zM728 632l-243.2-241.6-102.4-232 230.4 102.4 243.2 243.2zM699.2 256l-48-48-11.2-4.8-382.4-169.6 67.2 152 32 70.4h-137.6l-219.2-320h1024l-219.2 320z" />
<glyph unicode="&#xe659;" d="M736 544c-25.6 0-49.6 9.6-67.2 28.8-19.2 17.6-28.8 41.6-28.8 67.2s9.6 49.6 28.8 67.2c17.6 17.6 41.6 28.8 67.2 28.8s49.6-9.6 67.2-28.8c17.6-17.6 28.8-41.6 28.8-67.2s-9.6-49.6-28.8-67.2c-17.6-19.2-41.6-28.8-67.2-28.8zM736 672c-8 0-16-3.2-22.4-9.6s-9.6-14.4-9.6-22.4 3.2-16 9.6-22.4c12.8-12.8 33.6-12.8 44.8 0 6.4 6.4 9.6 14.4 9.6 22.4s-3.2 16-9.6 22.4c-6.4 6.4-14.4 9.6-22.4 9.6zM512 640c-25.6 0-49.6 9.6-67.2 28.8-36.8 36.8-36.8 97.6 0 136 17.6 17.6 41.6 27.2 67.2 27.2s49.6-9.6 67.2-28.8c17.6-17.6 28.8-41.6 28.8-67.2s-9.6-49.6-28.8-67.2c-17.6-19.2-41.6-28.8-67.2-28.8zM512 768c-8 0-16-3.2-22.4-9.6-12.8-12.8-12.8-32 0-44.8s33.6-12.8 44.8 0c6.4 6.4 9.6 14.4 9.6 22.4s-3.2 16-9.6 22.4-14.4 9.6-22.4 9.6zM304 576c-20.8 0-41.6 8-56 24-30.4 32-30.4 81.6 0 113.6 14.4 14.4 35.2 24 56 24s41.6-8 56-24 24-36.8 24-57.6c0-20.8-8-41.6-24-56-14.4-16-35.2-24-56-24zM304 672c-3.2 0-8 0-11.2-4.8-6.4-6.4-6.4-16 0-22.4 3.2-4.8 8-4.8 11.2-4.8s8 0 11.2 4.8 4.8 8 4.8 11.2c0 3.2 0 8-4.8 11.2s-8 4.8-11.2 4.8zM240 320c-30.4 0-57.6 11.2-78.4 32-43.2 43.2-43.2 115.2 0 158.4 20.8 20.8 49.6 33.6 78.4 33.6 30.4 0 57.6-11.2 78.4-33.6 43.2-43.2 43.2-115.2 0-158.4-20.8-20.8-48-32-78.4-32zM240 480c-12.8 0-25.6-4.8-33.6-14.4-19.2-19.2-19.2-49.6 0-67.2 17.6-17.6 49.6-17.6 67.2 0 19.2 19.2 19.2 49.6 0 67.2-8 9.6-20.8 14.4-33.6 14.4zM529.6-64v0c-91.2 3.2-145.6 48-145.6 113.6 0 91.2 70.4 104 108.8 112 27.2 4.8 35.2 8 35.2 12.8 3.2 25.6-1.6 30.4-1.6 30.4s-3.2 4.8-24 4.8c-17.6 0-40-3.2-67.2-6.4-36.8-4.8-83.2-11.2-132.8-11.2-214.4 0-280 100.8-297.6 184v1.6c-3.2 24-4.8 48-4.8 70.4 0 281.6 230.4 512 512 512s512-230.4 512-512c0-166.4-81.6-323.2-217.6-419.2l-3.2-1.6c-6.4-3.2-11.2-6.4-16-9.6s-8-6.4-12.8-9.6l-1.6-1.6c-73.6-43.2-156.8-67.2-243.2-70.4v0zM502.4 272c20.8 0 51.2-3.2 72-25.6 16-17.6 22.4-44.8 17.6-81.6-6.4-52.8-54.4-60.8-86.4-67.2-41.6-8-56-12.8-56-48 0-40 49.6-48 81.6-49.6 73.6 3.2 147.2 24 209.6 60.8 3.2 1.6 6.4 4.8 9.6 6.4 6.4 4.8 14.4 9.6 22.4 14.4 116.8 84.8 187.2 220.8 187.2 366.4 0 246.4-201.6 448-448 448s-448-201.6-448-448c0-19.2 1.6-40 4.8-59.2 17.6-88 97.6-132.8 235.2-132.8 46.4 0 88 4.8 124.8 9.6 27.2 3.2 52.8 6.4 73.6 6.4z" />
<glyph unicode="&#xe65a;" d="M512 960c-281.6 0-512-230.4-512-512 0-22.4 1.6-46.4 4.8-68.8v-1.6c17.6-84.8 83.2-185.6 297.6-185.6 49.6 0 96 6.4 132.8 11.2 27.2 3.2 49.6 6.4 67.2 6.4 20.8 0 24-3.2 24-4.8 0 0 4.8-6.4 1.6-30.4 0-4.8-8-8-35.2-12.8-38.4-8-108.8-20.8-108.8-112 0-65.6 54.4-108.8 144-113.6h3.2c84.8 3.2 169.6 27.2 243.2 70.4l1.6 1.6c4.8 3.2 8 6.4 12.8 9.6s11.2 6.4 16 9.6l3.2 1.6c134.4 96 216 252.8 216 419.2 0 281.6-230.4 512-512 512zM307.2 363.2c-17.6-17.6-41.6-27.2-67.2-27.2s-49.6 9.6-67.2 28.8c-36.8 36.8-36.8 97.6 0 136 17.6 17.6 41.6 28.8 67.2 28.8s49.6-9.6 67.2-28.8c38.4-38.4 38.4-99.2 0-137.6zM348.8 611.2c-11.2-12.8-27.2-19.2-44.8-19.2s-33.6 6.4-44.8 19.2c-25.6 25.6-25.6 65.6 0 91.2 24 24 65.6 24 91.2 0 12.8-12.8 19.2-28.8 19.2-44.8-1.6-19.2-8-35.2-20.8-46.4zM568 680c-14.4-16-35.2-24-56-24s-41.6 8-56 24c-30.4 30.4-30.4 81.6 0 113.6 14.4 14.4 35.2 22.4 56 22.4s41.6-8 56-24c14.4-14.4 24-35.2 24-56 0-22.4-8-41.6-24-56zM792 584c-14.4-16-35.2-24-56-24s-41.6 8-56 24c-30.4 30.4-30.4 81.6 0 113.6 14.4 14.4 35.2 24 56 24s41.6-8 56-24c14.4-14.4 24-35.2 24-56 0-22.4-8-43.2-24-57.6z" />
<glyph unicode="&#xe65b;" d="M753.6 520l270.4 270.4-169.6 169.6-41.6-41.6-6.4 6.4c-46.4 46.4-121.6 46.4-168 0l-227.2-227.2c-12.8-12.8-12.8-32 0-44.8 6.4-6.4 14.4-9.6 22.4-9.6s16 3.2 22.4 9.6l227.2 227.2c20.8 20.8 56 20.8 76.8 0l8-6.4-184-184c0 0 0 0-1.6 0 0 0 0 0 0-1.6l-400-400 20.8-20.8c-4.8 0-9.6 0-14.4 0 0 0 0 0 0 0-38.4 0-75.2-14.4-102.4-41.6-4.8-4.8-8-9.6-12.8-14.4-9.6-12.8-17.6-25.6-22.4-41.6-32-75.2-48-188.8-48-193.6l-3.2-40 41.6 4.8c4.8 0 121.6 16 196.8 49.6 12.8 4.8 25.6 11.2 36.8 19.2 6.4 4.8 11.2 9.6 16 12.8 27.2 27.2 41.6 64 41.6 102.4 0 4.8 0 9.6 0 14.4l20.8-20.8 400 400c-1.6 0-1.6 0 0 1.6 0 0 0 0 0 0zM246.4 68.8c-1.6-1.6-4.8-3.2-8-6.4-6.4-4.8-14.4-9.6-20.8-11.2l-1.6-1.6c-24-9.6-52.8-19.2-80-25.6l56 56c12.8 12.8 12.8 32 0 44.8s-32 12.8-44.8 0l-56-56c6.4 27.2 14.4 56 24 78.4l1.6 3.2c3.2 8 6.4 16 12.8 24 1.6 3.2 3.2 4.8 6.4 6.4 14.4 14.4 35.2 24 56 24s41.6-8 56-24c14.4-14.4 24-35.2 24-56-3.2-20.8-11.2-41.6-25.6-56zM932.8 790.4l-203.2-203.2-80 80 204.8 201.6 78.4-78.4zM273.6 289.6l332.8 332.8 80-80-332.8-332.8-80 80z" />
<glyph unicode="&#xe65c;" d="M854.4 960l-41.6-41.6-6.4 6.4c-22.4 22.4-52.8 35.2-84.8 35.2s-60.8-12.8-83.2-35.2l-227.2-227.2c-12.8-12.8-12.8-32 0-44.8 6.4-6.4 14.4-9.6 22.4-9.6s16 3.2 22.4 9.6l227.2 227.2c20.8 20.8 56 20.8 76.8 0l8-6.4-161.6-161.6 169.6-169.6 248 248-169.6 169.6zM182.4 288l20.8-20.8c-4.8 0-9.6 0-14.4 0-38.4 0-75.2-14.4-102.4-41.6-4.8-4.8-8-9.6-12.8-14.4-9.6-12.8-17.6-25.6-22.4-41.6-32-75.2-48-188.8-48-193.6l-3.2-40 41.6 4.8c4.8 0 121.6 16 196.8 49.6 12.8 4.8 25.6 11.2 36.8 19.2 6.4 4.8 11.2 8 16 12.8 27.2 27.2 41.6 64 41.6 102.4 0 4.8 0 9.6 0 14.4l20.8-20.8 377.6 377.6-171.2 169.6-377.6-377.6zM246.4 68.8c-1.6-1.6-4.8-3.2-8-6.4-6.4-4.8-14.4-9.6-20.8-11.2l-1.6-1.6c-24-11.2-52.8-19.2-80-25.6l56 56c12.8 12.8 12.8 32 0 44.8s-32 12.8-44.8 0l-56-56c3.2 27.2 11.2 56 20.8 78.4l1.6 3.2c3.2 8 6.4 16 12.8 24 1.6 3.2 3.2 4.8 6.4 6.4 14.4 14.4 35.2 24 56 24s41.6-8 56-24c14.4-14.4 24-35.2 24-56s-8-41.6-22.4-56z" />
<glyph unicode="&#xe65d;" d="M1004.8 934.4c-14.4 16-35.2 25.6-57.6 25.6-19.2 0-38.4-6.4-52.8-20.8l-646.4-576c-3.2-3.2-8-6.4-11.2-11.2-24-25.6-35.2-59.2-33.6-94.4 0-3.2 0-6.4 1.6-9.6h-3.2l-12.8-9.6c-17.6-12.8-40-16-60.8-9.6l-16 4.8-12.8-9.6c-6.4-4.8-12.8-9.6-17.6-14.4s-8-9.6-11.2-14.4c-9.6-11.2-16-25.6-20.8-38.4-28.8-70.4-44.8-176-44.8-180.8l-4.8-40 41.6 4.8c4.8 0 113.6 14.4 184 46.4 12.8 4.8 24 11.2 35.2 19.2 6.4 4.8 11.2 8 16 12.8s9.6 11.2 14.4 17.6l9.6 12.8-4.8 16c-6.4 20.8-3.2 43.2 9.6 60.8l9.6 12.8v3.2c6.4-1.6 11.2-1.6 17.6-1.6 36.8 0 73.6 16 97.6 44.8l576 646.4c24 28.8 24 72-1.6 102.4zM228.8 62.4c-1.6-1.6-3.2-3.2-6.4-4.8-6.4-4.8-12.8-8-19.2-11.2l-1.6-1.6c-19.2-8-43.2-16-67.2-22.4l46.4 46.4c12.8 12.8 12.8 32 0 44.8s-32 12.8-44.8 0l-46.4-46.4c6.4 22.4 12.8 44.8 20.8 64l1.6 3.2c3.2 8 6.4 14.4 11.2 22.4 1.6 1.6 3.2 3.2 4.8 4.8 28.8-4.8 60.8 0 86.4 14.4 6.4-3.2 11.2-8 17.6-12.8 4.8-4.8 9.6-11.2 12.8-17.6-17.6-24-22.4-54.4-16-83.2zM956.8 873.6l-576-646.4c-12.8-14.4-30.4-22.4-49.6-22.4-16 0-30.4 4.8-41.6 16-12.8 11.2-19.2 27.2-20.8 43.2-1.6 17.6 4.8 35.2 17.6 48 1.6 1.6 3.2 3.2 4.8 4.8l646.4 576c1.6 1.6 6.4 3.2 9.6 3.2 1.6 0 6.4 0 9.6-4.8 4.8-4.8 4.8-12.8 0-17.6z" />
<glyph unicode="&#xe65e;" d="M1004.8 934.4c-14.4 16-35.2 25.6-57.6 25.6-19.2 0-38.4-6.4-52.8-20.8l-648-576c-3.2-3.2-8-6.4-11.2-11.2-24-25.6-35.2-60.8-33.6-94.4 0-3.2 0-6.4 1.6-9.6h-3.2l-12.8-9.6c-17.6-12.8-40-16-60.8-9.6l-16 4.8-12.8-9.6c-6.4-4.8-12.8-9.6-17.6-14.4s-8-9.6-11.2-14.4c-9.6-11.2-16-25.6-20.8-38.4-28.8-70.4-44.8-176-44.8-180.8l-3.2-40 41.6 4.8c4.8 0 113.6 14.4 184 46.4 12.8 4.8 24 11.2 35.2 19.2 6.4 4.8 11.2 8 16 12.8s9.6 11.2 14.4 17.6l9.6 12.8-4.8 16c-6.4 20.8-3.2 43.2 9.6 60.8l9.6 12.8v3.2c6.4 0 11.2-1.6 17.6-1.6 36.8 0 73.6 16 97.6 44.8l576 646.4c24 28.8 24 73.6-1.6 102.4zM228.8 62.4c-1.6-1.6-3.2-3.2-6.4-4.8-6.4-4.8-12.8-8-19.2-11.2l-1.6-1.6c-19.2-8-43.2-16-67.2-22.4l46.4 46.4c12.8 12.8 12.8 32 0 44.8s-32 12.8-44.8 0l-46.4-46.4c6.4 22.4 12.8 44.8 20.8 64l1.6 3.2c3.2 8 6.4 14.4 11.2 22.4 1.6 1.6 3.2 3.2 4.8 4.8 28.8-4.8 60.8 0 86.4 14.4 6.4-3.2 11.2-8 17.6-12.8 4.8-4.8 9.6-11.2 12.8-17.6-17.6-24-22.4-54.4-16-83.2z" />
<glyph unicode="&#xe65f;" d="M753.6 520l270.4 270.4-169.6 169.6-41.6-41.6-6.4 6.4c-22.4 22.4-52.8 35.2-84.8 35.2 0 0 0 0 0 0-32 0-60.8-12.8-83.2-35.2l-227.2-227.2c-12.8-12.8-12.8-32 0-44.8 6.4-6.4 14.4-9.6 22.4-9.6s16 3.2 22.4 9.6l227.2 227.2c9.6 9.6 24 16 38.4 16v0c14.4 0 28.8-6.4 38.4-16l8-6.4-184-184c0 0 0 0 0 0s0 0 0-1.6l-448-448 16-16-113.6-113.6 44.8-44.8-75.2-75.2c-12.8-12.8-12.8-32 0-44.8 8-6.4 16-9.6 24-9.6s16 3.2 22.4 9.6l75.2 75.2 44.8-44.8 113.6 113.6 17.6-17.6 448 448c-1.6-1.6-1.6-1.6 0 0 0 0 0 0 0 0zM932.8 790.4l-203.2-203.2-80 80 185.6 184c0 0 0 0 0 0s0 0 0 0l19.2 19.2 78.4-80zM225.6 240l380.8 380.8 80-80-382.4-379.2-78.4 78.4zM174.4 65.6l-44.8 44.8 67.2 67.2 44.8-44.8-67.2-67.2z" />
<glyph unicode="&#xe660;" d="M560 665.6l-425.6-425.6 17.6-16-113.6-113.6 44.8-44.8-75.2-75.2c-12.8-12.8-12.8-32 0-44.8 8-6.4 16-9.6 24-9.6s16 3.2 22.4 9.6l75.2 75.2 44.8-44.8 113.6 113.6 17.6-17.6 424 424-169.6 169.6zM433.6 643.2c8 0 16 3.2 22.4 9.6l227.2 227.2c9.6 9.6 24 16 38.4 16v0c14.4 0 28.8-6.4 38.4-16l8-6.4-161.6-161.6 169.6-169.6 248 248-169.6 169.6-41.6-41.6-6.4 6.4c-22.4 22.4-52.8 35.2-84.8 35.2v0c-32 0-60.8-12.8-83.2-35.2l-227.2-227.2c-12.8-12.8-12.8-32 0-44.8 6.4-6.4 14.4-9.6 22.4-9.6z" />
<glyph unicode="&#xe661;" d="M988.8 924.8c-22.4 22.4-52.8 35.2-84.8 35.2s-62.4-12.8-84.8-35.2l-8-8-6.4 6.4c-22.4 22.4-52.8 35.2-84.8 35.2v0c-32 0-60.8-12.8-83.2-35.2l-227.2-225.6c-12.8-12.8-12.8-32 0-44.8 6.4-6.4 14.4-9.6 22.4-9.6s16 3.2 22.4 9.6l227.2 225.6c9.6 9.6 24 16 38.4 16s28.8-6.4 38.4-16l6.4-6.4-182.4-184c0 0 0 0-1.6 0s0 0 0-1.6l-476.8-476.8-1.6-6.4c0 0 0 0 0 0l-102.4-267.2 273.6 104 476.8 476.8c0 0 0 0 1.6 0 0 0 0 0 0 1.6l238.4 238.4c22.4 22.4 33.6 52.8 33.6 83.2 0 32-12.8 62.4-35.2 84.8zM256 113.6l-80 78.4 427.2 427.2 78.4-78.4-425.6-427.2zM144 134.4l54.4-54.4-88-33.6 33.6 88zM944 801.6l-214.4-216-78.4 78.4 212.8 216c20.8 20.8 57.6 20.8 78.4 0 11.2-11.2 16-24 16-40 1.6-14.4-4.8-28.8-14.4-38.4z" />
<glyph unicode="&#xe662;" d="M560 665.6l-456-456-104-273.6 273.6 104 456 456-169.6 169.6zM110.4 46.4l33.6 88 54.4-54.4-88-33.6zM988.8 924.8c-22.4 24-52.8 35.2-84.8 35.2s-62.4-12.8-84.8-35.2l-8-8-6.4 6.4c-22.4 22.4-52.8 35.2-83.2 35.2v0c-32 0-60.8-12.8-83.2-35.2l-228.8-225.6c-12.8-12.8-12.8-32 0-44.8 6.4-6.4 14.4-9.6 22.4-9.6s16 3.2 22.4 9.6l228.8 225.6c9.6 9.6 24 16 38.4 16s28.8-6.4 38.4-16l6.4-6.4-161.6-161.6 169.6-169.6 214.4 214.4c22.4 22.4 35.2 52.8 35.2 84.8s-12.8 62.4-35.2 84.8z" />
<glyph unicode="&#xe663;" d="M851.2 960l-713.6-712-137.6-312 312 137.6 712 712-172.8 174.4zM934.4 785.6l-54.4-54.4-83.2 83.2 54.4 54.4 83.2-83.2zM209.6 228.8l540.8 539.2 83.2-83.2-540.8-539.2-83.2 83.2zM174.4 174.4l62.4-62.4-112-49.6 49.6 112z" />
<glyph unicode="&#xe664;" d="M126.4 222.4l-126.4-286.4 286.4 126.4zM923.2 686.4l100.8 99.2-172.8 174.4-100.8-100.8zM705.6 814.4l-540.8-539.2 172.8-174.4 540.8 539.2z" />
<glyph unicode="&#xe665;" d="M988.8 924.8c-24 22.4-54.4 35.2-86.4 35.2s-64-12.8-86.4-35.2l-678.4-676.8-137.6-312 312 137.6 676.8 676.8c24 22.4 35.2 54.4 35.2 86.4 0 33.6-12.8 64-35.2 88zM209.6 228.8l569.6 568 83.2-83.2-569.6-568-83.2 83.2zM174.4 172.8l62.4-62.4-112-49.6 49.6 112zM944 795.2l-36.8-36.8-83.2 83.2 36.8 36.8c22.4 22.4 60.8 22.4 83.2 0 11.2-11.2 16-25.6 16-41.6s-4.8-30.4-16-41.6z" />
<glyph unicode="&#xe666;" d="M732.8 843.2l-568-569.6 172.8-172.8 569.6 568zM952 715.2l36.8 36.8c24 22.4 35.2 54.4 35.2 86.4s-12.8 64-35.2 86.4c-24 22.4-54.4 35.2-86.4 35.2s-64-12.8-86.4-35.2l-36.8-36.8 172.8-172.8zM126.4 222.4l-126.4-286.4 286.4 126.4z" />
<glyph unicode="&#xe667;" d="M963.2 899.2c-40 38.4-88 60.8-134.4 60.8-40 0-76.8-16-107.2-46.4l-643.2-643.2-78.4-334.4 334.4 78.4 643.2 643.2c67.2 67.2 60.8 166.4-14.4 241.6zM916.8 852.8c36.8-36.8 62.4-94.4 22.4-142.4l-164.8 164.8c16 12.8 33.6 20.8 54.4 20.8 30.4 0 60.8-16 88-43.2zM153.6 254.4l483.2 483.2 164.8-164.8-483.2-483.2-164.8 164.8zM681.6 784l46.4 46.4 164.8-164.8-44.8-48-166.4 166.4zM126.4 192l129.6-129.6-169.6-40 40 169.6z" />
<glyph unicode="&#xe668;" d="M107.876 300.284l484.222 484.222 255.687-255.687-484.222-484.222-255.687 255.687zM985.6 665.6c59.2 65.6 49.6 160-22.4 233.6-40 38.4-88 60.8-134.4 60.8-36.8 0-70.4-12.8-99.2-38.4l256-256zM73.6 244.8l-73.6-308.8 308.8 72zM636.906 828.932l47.524 47.51 255.651-255.724-47.524-47.51-255.651 255.724z" />
<glyph unicode="&#xe669;" d="M1022.4 784c-4.8 40-25.6 81.6-59.2 115.2-38.4 40-86.4 60.8-132.8 60.8-40 0-76.8-16-105.6-46.4l-646.4-646.4-78.4-331.2 331.2 78.4 646.4 646.4c35.2 35.2 51.2 76.8 44.8 123.2zM292.8 273.6v0c-22.4-22.4-51.2-33.6-81.6-33.6-20.8 0-40 4.8-56 14.4l444.8 444.8 59.2-59.2-366.4-366.4zM337.6 228.8l366.4 366.4 59.2-59.2-444.8-444.8c-24 43.2-17.6 100.8 19.2 137.6zM644.8 744l46.4 46.4 163.2-163.2-46.4-46.4-163.2 163.2zM126.4 196.8c25.6-14.4 54.4-20.8 84.8-20.8 11.2 0 22.4 1.6 32 3.2-8-40-1.6-80 17.6-116.8l-176-41.6 41.6 176zM932.8 705.6l-33.6-33.6-163.2 163.2 33.6 33.6c17.6 19.2 38.4 27.2 60.8 27.2 28.8 0 60.8-14.4 88-41.6 24-24 38.4-51.2 41.6-78.4 3.2-25.6-6.4-49.6-27.2-70.4z" />
<glyph unicode="&#xe66a;" d="M857.656 537.081l-255.687 255.687 47.517 47.517 255.687-255.687-47.517-47.517zM707.2 596.8l-371.2-371.2c-44.8-46.4-44.8-120 0-164.8l22.4-22.4 452.8 452.8-104 105.6zM291.2 16c-43.2 43.2-60.8 104-49.6 161.6-11.2-1.6-22.4-3.2-33.6-3.2-48 0-94.4 19.2-128 52.8l-12.8 12.8-72-308.8 308.8 72-12.8 12.8zM555.2 747.2l-452.8-452.8 22.4-22.4c22.4-22.4 51.2-33.6 83.2-33.6s60.8 12.8 83.2 33.6v0l371.2 371.2-107.2 104zM1028.8 787.2c-4.8 41.6-25.6 83.2-60.8 116.8-40 40-86.4 60.8-132.8 60.8-40 0-76.8-16-107.2-46.4l-33.6-33.6 256-256 33.6 33.6c33.6 35.2 49.6 78.4 44.8 124.8z" />
<glyph unicode="&#xe66b;" d="M681.6 956.8l-44.8-44.8c-30.4-30.4-40-76.8-25.6-116.8l-145.6-145.6h-180.8l-99.2-99.2 192-192-366.4-364.8c-12.8-12.8-12.8-32 0-44.8 6.4-6.4 14.4-9.6 22.4-9.6s16 3.2 22.4 9.6l364.8 364.8 192-192 99.2 99.2v180.8l145.6 145.6c11.2-4.8 24-6.4 38.4-6.4 30.4 0 57.6 11.2 78.4 32l44.8 44.8-337.6 339.2zM870.4 612.8l-22.4 14.4-198.4-200v-180.8l-35.2-35.2-339.2 339.2 35.2 35.2h180.8l198.4 198.4-14.4 22.4c-12.8 19.2-9.6 44.8 6.4 60.8l249.6-249.6c-16-14.4-41.6-17.6-60.8-4.8z" />
<glyph unicode="&#xe66c;" d="M681.6 956.8l-44.8-44.8c-30.4-30.4-40-76.8-25.6-116.8l-145.6-145.6h-180.8l-99.2-99.2 192-192-366.4-364.8c-12.8-12.8-12.8-32 0-44.8 6.4-6.4 14.4-9.6 22.4-9.6s16 3.2 22.4 9.6l364.8 364.8 192-192 99.2 99.2v180.8l145.6 145.6c11.2-4.8 24-6.4 38.4-6.4 30.4 0 57.6 11.2 78.4 32l44.8 44.8-337.6 339.2z" />
<glyph unicode="&#xe66d;" d="M958.4 894.4c-41.6 41.6-99.2 65.6-158.4 65.6s-116.8-24-158.4-65.6c-41.6-41.6-65.6-99.2-65.6-158.4 0-49.6 16-96 44.8-134.4l-611.2-611.2c-12.8-12.8-12.8-32 0-44.8 6.4-6.4 14.4-9.6 22.4-9.6s16 3.2 22.4 9.6l611.2 611.2c38.4-28.8 84.8-44.8 134.4-44.8 59.2 0 116.8 24 158.4 65.6s65.6 99.2 65.6 158.4c0 59.2-24 116.8-65.6 158.4zM913.6 622.4c-30.4-30.4-70.4-46.4-113.6-46.4s-83.2 16-113.6 46.4c-30.4 30.4-46.4 70.4-46.4 113.6s16 83.2 46.4 113.6c30.4 30.4 70.4 46.4 113.6 46.4s83.2-16 113.6-46.4c30.4-30.4 46.4-70.4 46.4-113.6s-16-83.2-46.4-113.6z" />
<glyph unicode="&#xe66e;" d="M958.4 894.4c-41.6 41.6-99.2 65.6-158.4 65.6s-116.8-24-158.4-65.6c-80-80-86.4-204.8-20.8-292.8l-611.2-611.2c-12.8-12.8-12.8-32 0-44.8 6.4-6.4 14.4-9.6 22.4-9.6s16 3.2 22.4 9.6l611.2 611.2c38.4-28.8 84.8-44.8 134.4-44.8 59.2 0 116.8 24 158.4 65.6s65.6 99.2 65.6 158.4c0 59.2-24 116.8-65.6 158.4z" />
<glyph unicode="&#xe66f;" d="M971.2 667.2c20.8 57.6 33.6 129.6 33.6 219.2v73.6l-214.4-214.4v99.2c0 0 0 0 0 0 0 1.6 0 1.6 0 3.2s0 1.6 0 3.2 0 1.6-1.6 3.2c0 1.6 0 1.6-1.6 3.2 0 0 0 0 0 0s0 1.6-1.6 1.6c0 1.6-1.6 1.6-1.6 3.2 0 0 0 1.6-1.6 1.6 0 0-1.6 1.6-1.6 1.6s-1.6 1.6-1.6 1.6c0 0-1.6 1.6-1.6 1.6-1.6 0-1.6 1.6-3.2 1.6s-1.6 1.6-3.2 1.6c-1.6 0-1.6 0-3.2 1.6-1.6 0-1.6 0-3.2 0s-1.6 0-3.2 0c0 0-1.6 0-1.6 0s0 0 0 0c-1.6 0-1.6 0-3.2 0s-1.6 0-3.2 0-1.6 0-3.2-1.6c-1.6 0-1.6 0-3.2-1.6 0 0 0 0 0 0-104-49.6-227.2-158.4-232-403.2l-38.4-38.4c-11.2-11.2-11.2-32 0-43.2 6.4-6.4 14.4-9.6 22.4-9.6s16 3.2 22.4 9.6l38.4 38.4c86.4 0 244.8 6.4 348.8 128 4.8 3.2 9.6 9.6 12.8 14.4 17.6 24 35.2 52.8 48 86.4-1.6 6.4 0 9.6 1.6 14.4zM920 702.4h-86.4l105.6 105.6c-3.2-40-9.6-75.2-19.2-105.6zM875.2 611.2h-132.8l30.4 30.4h121.6c-6.4-11.2-12.8-22.4-19.2-30.4zM729.6 792v-108.8l-81.6-81.6c-1.6-1.6-1.6-1.6-3.2-3.2l-64-64c17.6 137.6 83.2 214.4 148.8 257.6zM680 548.8h132.8c-54.4-36.8-120-52.8-190.4-59.2l57.6 59.2zM641.6-64h-622.4l4.8 35.2c17.6 120 102.4 220.8 214.4 256v14.4c-25.6 0-44.8 20.8-44.8 46.4v60.8c0 25.6 20.8 46.4 46.4 46.4h184c25.6 0 46.4-20.8 46.4-46.4v-60.8c0-24-19.2-44.8-43.2-46.4h-3.2v-14.4c112-35.2 196.8-136 214.4-256l3.2-35.2zM92.8-3.2h475.2c-25.6 88-96 156.8-184 177.6l-24 4.8v78.4c0 25.6 20.8 46.4 46.4 46.4v0 30.4h-153.6v-30.4c25.6 0 44.8-20.8 44.8-46.4v-78.4l-24-4.8c-84.8-20.8-155.2-89.6-180.8-177.6z" />
<glyph unicode="&#xe670;" d="M1001.6 956.8c-11.2 6.4-25.6 3.2-33.6-6.4l-169.6-169.6v104c0 4.8-1.6 9.6-3.2 14.4-8 16-27.2 22.4-43.2 16-108.8-51.2-236.8-166.4-241.6-420.8l-72-72c-12.8-12.8-12.8-32 0-44.8 6.4-6.4 14.4-9.6 22.4-9.6s16 3.2 22.4 9.6l72 72c139.2 0 467.2 16 467.2 480 0 11.2-8 22.4-20.8 27.2zM622.4 515.2l331.2 331.2c-24-251.2-164.8-318.4-331.2-331.2zM353.6 184v56c0 9.6 6.4 16 16 16h16c8 0 16 8 16 16v64c0 9.6-6.4 16-16 16h-192c-9.6 0-16-6.4-16-16v-64c0-9.6 6.4-16 16-16h16c9.6 0 16-6.4 16-16v-56c-115.2-27.2-204.8-124.8-224-248h576c-17.6 123.2-107.2 220.8-224 248z" />
<glyph unicode="&#xe671;" d="M0-57.6v707.2l379.2-345.6-379.2-361.6zM64 504v-412.8l220.8 211.2-220.8 201.6zM1024-57.6l-379.2 361.6 379.2 345.6v-707.2zM739.2 302.4l220.8-211.2v412.8l-220.8-201.6zM512-64c-17.6 0-32 14.4-32 32v640c0 17.6 14.4 32 32 32s32-14.4 32-32v-640c0-17.6-14.4-32-32-32zM880 854.4c-16 8-35.2 3.2-43.2-12.8l-48-84.8c-33.6 116.8-145.6 203.2-276.8 203.2-158.4 0-288-123.2-288-275.2 0-17.6 14.4-32 32-32s32 14.4 32 32c0 116.8 100.8 211.2 224 211.2 102.4 0 188.8-65.6 216-153.6l-81.6 46.4c-16 8-35.2 3.2-43.2-12.8s-3.2-35.2 12.8-43.2l177.6-100.8 100.8 177.6c6.4 16 1.6 35.2-14.4 44.8z" />
<glyph unicode="&#xe672;" d="M0-57.6l379.2 361.6-379.2 345.6zM644.8 304l379.2-361.6v707.2zM512 640c-17.6 0-32-14.4-32-32v-640c0-17.6 14.4-32 32-32s32 14.4 32 32v640c0 17.6-14.4 32-32 32zM892.8 811.2c8 16 3.2 35.2-12.8 43.2s-35.2 3.2-43.2-12.8l-48-84.8c-33.6 118.4-144 203.2-276.8 203.2-158.4 0-288-123.2-288-275.2 0-17.6 14.4-32 32-32s32 14.4 32 32c0 116.8 100.8 211.2 224 211.2 102.4 0 188.8-65.6 216-153.6l-81.6 46.4c-16 8-35.2 3.2-43.2-12.8s-3.2-35.2 12.8-43.2l177.6-100.8 99.2 179.2z" />
<glyph unicode="&#xe673;" d="M809.6 563.2c4.8 20.8 6.4 40 6.4 60.8 0 168-136 304-304 304s-304-136-304-304c0-30.4 4.8-60.8 14.4-91.2 0 0 0 0 0 0 0-3.2 1.6-4.8 3.2-8 20.8-59.2 57.6-110.4 108.8-147.2 6.4-4.8 12.8-6.4 19.2-6.4 9.6 0 19.2 4.8 25.6 12.8 11.2 14.4 8 33.6-6.4 44.8-30.4 22.4-54.4 49.6-70.4 81.6 1.6 0 3.2 0 3.2 0 132.8 0 240-107.2 240-240 0-43.2-11.2-84.8-32-120-20.8 36.8-32 76.8-32 120 0 24 3.2 48 11.2 70.4 4.8 17.6-4.8 35.2-20.8 40-17.6 4.8-35.2-4.8-40-20.8-11.2-27.2-16-57.6-16-88 0-62.4 19.2-121.6 54.4-172.8-43.2-41.6-102.4-67.2-166.4-67.2-132.8 0-240 107.2-240 240 0 83.2 41.6 160 113.6 203.2 14.4 9.6 19.2 28.8 9.6 44.8-9.6 14.4-28.8 19.2-44.8 9.6-89.6-56-142.4-152-142.4-257.6 0-168 136-304 304-304 89.6 0 169.6 38.4 225.6 100.8 1.6 1.6 3.2 1.6 4.8 3.2 4.8 3.2 6.4 8 8 12.8 41.6 51.2 65.6 116.8 65.6 187.2 0 20.8-1.6 41.6-6.4 60.8 54.4 17.6 104 49.6 142.4 92.8 11.2 12.8 9.6 33.6-3.2 44.8s-33.6 9.6-44.8-3.2c-30.4-35.2-68.8-60.8-113.6-73.6-8 17.6-17.6 35.2-28.8 51.2 44.8 43.2 104 67.2 166.4 67.2 132.8 0 240-107.2 240-240s-107.2-240-240-240c-35.2 0-67.2 6.4-99.2 20.8-16 8-35.2 0-41.6-16-8-16 0-35.2 16-41.6 40-17.6 81.6-27.2 124.8-27.2 168 0 304 136 304 304 0 136-89.6 252.8-214.4 291.2zM512 492.8c-54.4 51.2-128 83.2-208 83.2-9.6 0-17.6 0-27.2-1.6-3.2 16-4.8 32-4.8 49.6 0 132.8 107.2 240 240 240s240-107.2 240-240c0-16-1.6-33.6-4.8-49.6-9.6 1.6-17.6 1.6-27.2 1.6-78.4 0-152-30.4-208-83.2z" />
<glyph unicode="&#xe674;" d="M660.8 360c92.8 51.2 155.2 150.4 155.2 264 0 168-136 304-304 304-166.4 0-302.4-134.4-304-300.8 30.4 8 62.4 12.8 96 12.8 172.8 0 318.4-120 356.8-280zM460.8 532.8c-46.4 27.2-99.2 43.2-156.8 43.2-168 0-304-136-304-304s136-304 304-304c57.6 0 110.4 16 156.8 43.2-67.2 67.2-108.8 160-108.8 260.8 0 102.4 41.6 193.6 108.8 260.8zM868.8 536c-38.4-160-184-280-356.8-280-33.6 0-65.6 4.8-96 12.8 1.6-166.4 137.6-300.8 304-300.8 168 0 304 136 304 304 0 113.6-62.4 212.8-155.2 264z" />
<glyph unicode="&#xe675;" d="M758.4 958.4l-758.4-750.4 270.4-270.4 753.6 755.2-265.6 265.6zM91.2 208l97.6 97.6 89.6-89.6 44.8 44.8-89.6 89.6 40 38.4 57.6-57.6 44.8 44.8-57.6 57.6 43.2 43.2 89.6-89.6 44.8 44.8-89.6 89.6 35.2 35.2 57.6-57.6 44.8 44.8-57.6 57.6 43.2 43.2 88-88 44.8 44.8-88 88 36.8 36.8 56-56 44.8 44.8-56 56 97.6 97.6 176-176-659.2-664-179.2 179.2z" />
<glyph unicode="&#xe676;" d="M758.4 958.4l-64-62.4 102.4-100.8-46.4-46.4-100.8 102.4-68.8-68.8 132.8-132.8-44.8-44.8-134.4 132.8-75.2-75.2 102.4-102.4-44.8-44.8-102.4 102.4-67.2-67.2 134.4-134.4-46.4-44.8-134.4 134.4-75.2-75.2 104-102.4-46.4-46.4-102.4 104-72-70.4 136-136-46.4-44.8-136 136-62.4-62.4 270.4-270.4 753.6 755.2z" />
<glyph unicode="&#xe677;" d="M0 960v-1024h1024l-1024 1024zM64 806.4l70.4-70.4-28.8-28.8 44.8-44.8 28.8 28.8 57.6-57.6-28.8-30.4 44.8-44.8 28.8 28.8 57.6-57.6-28.8-28.8 44.8-44.8 28.8 28.8 57.6-57.6-25.6-30.4 44.8-44.8 28.8 28.8 57.6-57.6-28.8-28.8 44.8-44.8 28.8 28.8 57.6-57.6-28.8-28.8 44.8-44.8 28.8 28.8 57.6-57.6-28.8-28.8 44.8-44.8 28.8 28.8 70.4-70.4h-803.2v803.2zM128 64h524.8l-524.8 524.8v-524.8zM192 435.2l307.2-307.2h-307.2v307.2z" />
<glyph unicode="&#xe678;" d="M892.8 67.2l-41.6-41.6-44.8 44.8 41.6 41.6-73.6 73.6-43.2-41.6-44.8 44.8 41.6 41.6-73.6 73.6-41.6-41.6-44.8 44.8 41.6 41.6-73.6 73.6-43.2-38.4-44.8 44.8 41.6 41.6-73.6 73.6-41.6-41.6-44.8 44.8 41.6 41.6-73.6 73.6-41.6-41.6-48 46.4 41.6 41.6-73.6 75.2-41.6-41.6-44.8 44.8 41.6 41.6-131.2 131.2v-1024h1024l-131.2 131.2zM144 80v460.8l460.8-460.8h-460.8z" />
<glyph unicode="&#xe679;" d="M974.4 598.4c-32 32-75.2 49.6-120 49.6-46.4 0-88-17.6-120-49.6s-49.6-73.6-49.6-118.4c-25.6 19.2-52.8 35.2-80 48-16 30.4-33.6 59.2-56 89.6 43.2 1.6 84.8 19.2 116.8 49.6 32 32 49.6 75.2 49.6 120s-17.6 88-49.6 120c-32 32-75.2 49.6-120 49.6-46.4 0-88-17.6-120-49.6s-49.6-75.2-49.6-120 17.6-88 49.6-120c1.6-1.6 1.6-1.6 3.2-3.2v0c32-32 60.8-65.6 84.8-100.8-56 14.4-112 17.6-166.4 8-92.8-17.6-220.8-80-310.4-283.2l-36.8-75.2 524.8 244.8-209.6-520 68.8 30.4c190.4 83.2 249.6 204.8 265.6 291.2 11.2 56 6.4 115.2-11.2 174.4 30.4-20.8 60.8-46.4 89.6-75.2v0c1.6-1.6 1.6-1.6 3.2-3.2 32-32 75.2-49.6 120-49.6s88 17.6 120 49.6c32 32 49.6 75.2 49.6 120 3.2 48-14.4 91.2-46.4 123.2zM465.6 865.6c20.8 20.8 48 32 76.8 32s56-11.2 76.8-32c20.8-20.8 32-48 32-76.8s-11.2-56-32-76.8c-20.8-20.8-48-32-76.8-32s-56 11.2-76.8 32c-20.8 20.8-32 48-32 76.8s12.8 56 32 76.8zM131.2 342.4c59.2 92.8 134.4 150.4 222.4 168 17.6 3.2 36.8 4.8 54.4 4.8 24 0 49.6-3.2 73.6-8l-350.4-164.8zM590.4 270.4c-16-83.2-68.8-153.6-156.8-208l145.6 363.2c16-52.8 19.2-105.6 11.2-155.2zM929.6 400c-20.8-20.8-48-32-76.8-32s-56 11.2-76.8 32c-20.8 20.8-32 48-32 76.8s11.2 56 32 76.8c20.8 20.8 48 32 76.8 32s56-11.2 76.8-32 32-48 32-76.8c0-28.8-11.2-56-32-76.8z" />
<glyph unicode="&#xe67a;" d="M972.8 588.8c-33.6 33.6-78.4 51.2-124.8 51.2s-91.2-17.6-124.8-51.2c-32-32-51.2-75.2-51.2-121.6-27.2 19.2-54.4 35.2-81.6 49.6-16 30.4-35.2 60.8-57.6 91.2 44.8 1.6 88 19.2 120 51.2 33.6 33.6 51.2 76.8 51.2 124.8 0 46.4-17.6 91.2-51.2 124.8s-76.8 51.2-124.8 51.2-91.2-17.6-124.8-51.2c-32-33.6-51.2-78.4-51.2-124.8s17.6-91.2 51.2-124.8c1.6-1.6 1.6-1.6 3.2-3.2v0c33.6-33.6 62.4-68.8 86.4-104-57.6 14.4-116.8 17.6-171.2 8-94.4-17.6-227.2-83.2-320-291.2-4.8-12.8-1.6-25.6 8-35.2 6.4-6.4 14.4-9.6 22.4-9.6 4.8 0 9.6 1.6 12.8 3.2l464 216-187.2-464c-4.8-12.8-1.6-25.6 8-35.2 6.4-4.8 14.4-8 22.4-8 4.8 0 8 1.6 12.8 3.2 196.8 86.4 257.6 211.2 275.2 300.8 11.2 57.6 6.4 118.4-11.2 180.8 32-22.4 62.4-48 91.2-76.8v0c1.6-1.6 1.6-1.6 3.2-3.2 33.6-33.6 76.8-51.2 124.8-51.2 46.4 0 91.2 17.6 124.8 51.2 68.8 67.2 68.8 179.2 0 248zM449.6 862.4c20.8 20.8 49.6 32 80 32s57.6-11.2 78.4-32c20.8-20.8 33.6-49.6 33.6-80s-11.2-57.6-33.6-78.4c-20.8-20.8-49.6-32-78.4-32-30.4 0-57.6 11.2-80 32-20.8 20.8-32 49.6-32 78.4s9.6 59.2 32 80zM928 385.6c-20.8-20.8-49.6-32-80-32s-57.6 11.2-78.4 32c-20.8 20.8-33.6 49.6-33.6 80s11.2 57.6 33.6 80c20.8 20.8 49.6 33.6 78.4 33.6 30.4 0 57.6-11.2 80-33.6 43.2-46.4 43.2-116.8 0-160z" />
<glyph unicode="&#xe67b;" d="M977.6 593.6c-30.4 30.4-70.4 46.4-113.6 46.4-36.8 0-73.6-12.8-102.4-36.8l-129.6-35.2 35.2 129.6c24 28.8 36.8 64 36.8 102.4 0 43.2-16 83.2-46.4 113.6s-70.4 46.4-113.6 46.4c-43.2 0-83.2-16-113.6-46.4-62.4-62.4-62.4-163.2 0-225.6 30.4-32 70.4-48 113.6-48 14.4 0 28.8 1.6 43.2 6.4l-25.6-96-475.2-126.4c-12.8-4.8-92.8-30.4-86.4-163.2l1.6-38.4 387.2 102.4-76.8-284.8-30.4-102.4 41.6-1.6c4.8 0 8 0 11.2 0 123.2 0 148.8 72 152 86.4l126.4 475.2 96 25.6c-14.4-54.4-1.6-113.6 40-156.8 32-30.4 72-46.4 115.2-46.4s83.2 16 113.6 46.4c30.4 30.4 46.4 70.4 46.4 113.6s-16 83.2-46.4 113.6zM476.8 732.8c-36.8 36.8-36.8 97.6 0 136 17.6 17.6 41.6 27.2 67.2 27.2s49.6-9.6 67.2-28.8 28.8-41.6 28.8-67.2-9.6-49.6-28.8-67.2c-17.6-19.2-41.6-28.8-67.2-28.8s-49.6 9.6-67.2 28.8zM86.4 310.4l-20.8-4.8c8 48 35.2 56 35.2 56l320 84.8-12.8-49.6-321.6-86.4zM425.6 38.4v-1.6c0-1.6-8-27.2-57.6-35.2l6.4 20.8 118.4 443.2 49.6 12.8-116.8-440zM931.2 412.8c-17.6-19.2-41.6-28.8-67.2-28.8s-49.6 9.6-67.2 28.8c-36.8 36.8-36.8 97.6 0 136 17.6 17.6 41.6 28.8 67.2 28.8s49.6-9.6 67.2-28.8c17.6-17.6 28.8-41.6 28.8-67.2 0-27.2-9.6-51.2-28.8-68.8z" />
<glyph unicode="&#xe67c;" d="M977.6 593.6c-30.4 30.4-70.4 46.4-113.6 46.4-36.8 0-73.6-12.8-102.4-36.8l-129.6-35.2 35.2 129.6c24 28.8 36.8 64 36.8 102.4 0 43.2-16 83.2-46.4 113.6s-70.4 46.4-113.6 46.4-83.2-16-113.6-46.4c-62.4-62.4-62.4-163.2 0-225.6 30.4-32 70.4-48 113.6-48 14.4 0 28.8 1.6 43.2 6.4l-25.6-96-118.4-32-134.4-494.4-25.6-86.4 41.6-1.6c4.8 0 8 0 11.2 0 123.2 0 148.8 72 152 86.4l126.4 475.2 96 25.6c-14.4-54.4-1.6-113.6 40-156.8 30.4-30.4 70.4-46.4 113.6-46.4s83.2 16 113.6 46.4c62.4 62.4 62.4 164.8 0 227.2zM476.8 732.8c-36.8 36.8-36.8 97.6 0 136 17.6 17.6 41.6 27.2 67.2 27.2s49.6-9.6 67.2-28.8c19.2-17.6 28.8-41.6 28.8-67.2s-9.6-49.6-28.8-67.2c-17.6-19.2-41.6-28.8-67.2-28.8s-49.6 9.6-67.2 28.8zM932.8 412.8c-19.2-19.2-43.2-28.8-68.8-28.8s-49.6 9.6-67.2 28.8c-36.8 36.8-36.8 97.6 0 136 17.6 17.6 41.6 28.8 67.2 28.8s49.6-9.6 67.2-28.8c38.4-38.4 38.4-99.2 1.6-136zM371.2 499.2l-284.8-75.2c-12.8-4.8-92.8-30.4-86.4-163.2l1.6-38.4 316.8 84.8 52.8 192z" />
<glyph unicode="&#xe67d;" d="M1024 480c0 43.2-16 83.2-46.4 113.6s-70.4 46.4-113.6 46.4c-36.8 0-73.6-12.8-102.4-36.8l-129.6-35.2 33.6 129.6c24 28.8 36.8 64 36.8 102.4 0 43.2-16 83.2-46.4 113.6-28.8 30.4-68.8 46.4-112 46.4s-83.2-16-113.6-46.4c-62.4-62.4-62.4-163.2 0-225.6 30.4-32 70.4-48 113.6-48 0 0 0 0 0 0 14.4 0 28.8 1.6 43.2 6.4l-25.6-96-475.2-126.4c-12.8-4.8-92.8-30.4-86.4-163.2l1.6-38.4 387.2 102.4-52.8-196.8h-144v-64h448v64h-124.8l97.6 369.6 96 25.6c-14.4-54.4-1.6-113.6 40-156.8 30.4-30.4 70.4-46.4 113.6-46.4s83.2 16 113.6 46.4c32 30.4 48 70.4 48 113.6zM544 704c-25.6 0-49.6 9.6-67.2 28.8-36.8 36.8-36.8 97.6 0 136 17.6 17.6 41.6 27.2 67.2 27.2s49.6-9.6 67.2-28.8 28.8-41.6 28.8-67.2-9.6-49.6-28.8-67.2-41.6-28.8-67.2-28.8c0 0 0 0 0 0zM86.4 310.4l-20.8-4.8c8 48 35.2 56 35.2 56l320 84.8-12.8-49.6-321.6-86.4zM449.6 128h-48l91.2 337.6 49.6 12.8-92.8-350.4zM931.2 412.8c-17.6-19.2-41.6-28.8-67.2-28.8s-49.6 9.6-67.2 28.8c-36.8 36.8-36.8 97.6 0 136 17.6 17.6 41.6 28.8 67.2 28.8s49.6-9.6 67.2-28.8c17.6-17.6 28.8-41.6 28.8-67.2 0-27.2-9.6-51.2-28.8-68.8zM0 128h128v-64h-128v64zM704 128h128v-64h-128v64zM896 128h128v-64h-128v64z" />
<glyph unicode="&#xe67e;" d="M0 128h128v-64h-128v64zM704 128h128v-64h-128v64zM896 128h128v-64h-128v64zM3.2 222.4l316.8 84.8 52.8 193.6-286.4-76.8c-12.8-4.8-92.8-30.4-86.4-163.2l3.2-38.4zM977.6 593.6c-30.4 30.4-70.4 46.4-113.6 46.4-36.8 0-73.6-12.8-102.4-36.8l-129.6-35.2 35.2 129.6c24 28.8 36.8 64 36.8 102.4 0 43.2-16 83.2-46.4 113.6s-70.4 46.4-113.6 46.4-83.2-16-113.6-46.4c-62.4-62.4-62.4-163.2 0-225.6 30.4-32 70.4-48 113.6-48 14.4 0 28.8 1.6 43.2 6.4l-25.6-96-118.4-32-105.6-390.4h-144v-64h448v64h-124.8l99.2 369.6 96 25.6c-14.4-54.4-1.6-113.6 40-156.8 28.8-30.4 68.8-46.4 112-46.4s83.2 16 113.6 46.4c62.4 62.4 62.4 164.8 0 227.2zM612.8 732.8c-19.2-19.2-43.2-28.8-68.8-28.8s-49.6 9.6-67.2 28.8c-36.8 36.8-36.8 97.6 0 136 17.6 17.6 41.6 27.2 67.2 27.2s49.6-9.6 67.2-28.8c19.2-17.6 28.8-41.6 28.8-67.2s-9.6-49.6-27.2-67.2zM932.8 412.8c-19.2-19.2-43.2-28.8-68.8-28.8s-49.6 9.6-67.2 28.8c-36.8 36.8-36.8 97.6 0 136 17.6 17.6 41.6 28.8 67.2 28.8s49.6-9.6 67.2-28.8c38.4-38.4 38.4-99.2 1.6-136z" />
<glyph unicode="&#xe67f;" d="M12.8 374.4h62.4v-182.4h-62.4v182.4zM75.2 465.6h-62.4v115.2h115.2v-62.4h-52.8zM542.4 374.4h62.4v-182.4h-62.4v182.4zM604.8 580.8h-201.6l-3.2-4.8v4.8h-180.8v-62.4h144l-288-438.4v22.4h-62.4v-83.2h22.4l-19.2-30.4h608l387.2 592h-406.4zM604.8 75.2v27.2h-62.4v-51.2h-411.2l305.6 467.2h105.6v-51.2h62.4v51.2h291.2l-291.2-443.2zM704 899.2c-12.8 12.8-32 12.8-44.8 0s-12.8-32 0-44.8l56-56h-484.8c-17.6 0-30.4-14.4-30.4-30.4s14.4-30.4 30.4-30.4h486.4l-56-56c-12.8-12.8-12.8-32 0-44.8 6.4-6.4 14.4-9.6 22.4-9.6s16 3.2 22.4 9.6l131.2 131.2-132.8 131.2z" />
<glyph unicode="&#xe680;" d="M0 249.6h64v-118.4h-64v118.4zM0 428.8h64v-118.4h-64v118.4zM64 520h32v64h-96v-96h64zM155.2 584h118.4v-64h-118.4v64zM608 584h-273.6v-64h24l-294.4-451.2v3.2h-64v-64h24l-20.8-32h622.4l398.4 608zM224 744h499.2l-57.6-57.6c-12.8-12.8-12.8-32 0-44.8 6.4-6.4 14.4-9.6 22.4-9.6s16 3.2 22.4 9.6l136 136-136 136c-12.8 12.8-32 12.8-44.8 0s-12.8-32 0-44.8l57.6-57.6h-499.2c-17.6 0-32-14.4-32-32s14.4-35.2 32-35.2z" />
<glyph unicode="&#xe681;" d="M992 480h-65.6c-16 203.2-179.2 366.4-382.4 382.4v65.6c0 17.6-14.4 32-32 32s-32-14.4-32-32v-65.6c-203.2-16-366.4-179.2-382.4-382.4h-65.6c-17.6 0-32-14.4-32-32s14.4-32 32-32h65.6c16-203.2 179.2-366.4 382.4-382.4v-65.6c0-17.6 14.4-32 32-32s32 14.4 32 32v65.6c203.2 16 366.4 179.2 382.4 382.4h65.6c17.6 0 32 14.4 32 32s-14.4 32-32 32zM862.4 480h-145.6c-12.8 89.6-83.2 160-172.8 172.8v145.6c168-14.4 304-150.4 318.4-318.4zM480 480h-108.8c12.8 54.4 54.4 96 108.8 108.8v-108.8zM480 416v-108.8c-54.4 12.8-96 54.4-108.8 108.8h108.8zM544 416h108.8c-12.8-54.4-54.4-96-108.8-108.8v108.8zM544 480v108.8c54.4-12.8 96-54.4 108.8-108.8h-108.8zM480 798.4v-145.6c-89.6-12.8-160-83.2-172.8-172.8h-145.6c14.4 168 150.4 304 318.4 318.4zM161.6 416h145.6c12.8-89.6 83.2-160 172.8-172.8v-145.6c-168 16-304 150.4-318.4 318.4zM544 97.6v145.6c89.6 12.8 160 83.2 172.8 172.8h145.6c-14.4-168-150.4-302.4-318.4-318.4z" />
<glyph unicode="&#xe682;" d="M992 480h-97.6c-16 187.2-164.8 336-350.4 350.4v97.6c0 17.6-14.4 32-32 32s-32-14.4-32-32v-97.6c-187.2-16-334.4-164.8-350.4-350.4h-97.6c-17.6 0-32-14.4-32-32s14.4-32 32-32h97.6c16-185.6 164.8-336 350.4-350.4v-97.6c0-17.6 14.4-32 32-32s32 14.4 32 32v97.6c185.6 16 336 164.8 350.4 350.4h97.6c17.6 0 32 14.4 32 32s-14.4 32-32 32zM544 129.6v94.4c0 17.6-14.4 32-32 32s-32-14.4-32-32v-94.4c-152 14.4-272 136-286.4 286.4h94.4c17.6 0 32 14.4 32 32s-14.4 32-32 32h-94.4c14.4 150.4 136 272 286.4 286.4v-94.4c0-17.6 14.4-32 32-32s32 14.4 32 32v94.4c150.4-14.4 272-136 286.4-286.4h-94.4c-17.6 0-32-14.4-32-32s14.4-32 32-32h94.4c-14.4-150.4-136-272-286.4-286.4z" />
<glyph unicode="&#xe683;" d="M512-64c-281.6 0-512 230.4-512 512s230.4 512 512 512 512-230.4 512-512-230.4-512-512-512zM512 896c-246.4 0-448-201.6-448-448s201.6-448 448-448 448 201.6 448 448-201.6 448-448 448zM512 144c-168 0-304 136-304 304s136 304 304 304c168 0 304-136 304-304s-136-304-304-304zM512 688c-132.8 0-240-107.2-240-240s107.2-240 240-240c132.8 0 240 107.2 240 240s-107.2 240-240 240zM512 352c-52.8 0-96 43.2-96 96s43.2 96 96 96c52.8 0 96-43.2 96-96s-43.2-96-96-96zM512 480c-17.6 0-32-14.4-32-32s14.4-32 32-32c17.6 0 32 14.4 32 32s-14.4 32-32 32z" />
<glyph unicode="&#xe684;" d="M512 960c-281.6 0-512-230.4-512-512s230.4-512 512-512c281.6 0 512 230.4 512 512s-230.4 512-512 512zM932.8 448c0-228.8-187.2-416-416-416s-416 187.2-416 416c0 228.8 187.2 416 416 416s416-187.2 416-416zM512 776c-180.8 0-328-147.2-328-328s147.2-328 328-328c180.8 0 328 147.2 328 328s-147.2 328-328 328zM512 232c-118.4 0-216 97.6-216 216s97.6 216 216 216c118.4 0 216-97.6 216-216s-97.6-216-216-216zM512 576c-70.4 0-128-57.6-128-128s57.6-128 128-128c70.4 0 128 57.6 128 128s-57.6 128-128 128z" />
<glyph unicode="&#xe685;" d="M1001.6 696l-89.6 28.8 22.4 86.4c4.8 17.6-6.4 35.2-22.4 38.4-17.6 4.8-35.2-6.4-38.4-22.4l-27.2-104-116.8-67.2c-72 107.2-193.6 176-329.6 176-220.8 0-400-179.2-400-400s179.2-400 400-400 400 179.2 400 400c0 60.8-14.4 118.4-38.4 171.2l116.8 67.2 104-33.6c3.2-1.6 6.4-1.6 9.6-1.6 12.8 0 25.6 8 30.4 22.4s-3.2 33.6-20.8 38.4zM736 432c0-185.6-150.4-336-336-336s-336 150.4-336 336 150.4 336 336 336c113.6 0 212.8-56 273.6-142.4l-83.2-48c-43.2 57.6-112 94.4-190.4 94.4-132.8 0-240-107.2-240-240s107.2-240 240-240 240 107.2 240 240c0 32-6.4 62.4-17.6 89.6l83.2 48c19.2-41.6 30.4-88 30.4-137.6zM448 496c-12.8 9.6-30.4 16-48 16-44.8 0-80-35.2-80-80s35.2-80 80-80 80 35.2 80 80c0 3.2 0 4.8 0 8l86.4 49.6c6.4-17.6 9.6-36.8 9.6-57.6 0-97.6-78.4-176-176-176s-176 78.4-176 176c0 97.6 78.4 176 176 176 54.4 0 102.4-24 134.4-62.4l-86.4-49.6z" />
<glyph unicode="&#xe686;" d="M1001.6 696l-89.6 28.8 22.4 86.4c4.8 17.6-6.4 35.2-22.4 38.4-17.6 4.8-35.2-6.4-38.4-22.4l-27.2-104-116.8-67.2c-72 107.2-193.6 176-329.6 176-220.8 0-400-179.2-400-400 0-126.4 59.2-238.4 150.4-312l-81.6-136c-9.6-14.4-4.8-33.6 11.2-43.2 4.8-3.2 9.6-4.8 16-4.8 11.2 0 20.8 4.8 27.2 16l80 132.8c57.6-33.6 124.8-52.8 196.8-52.8s139.2 19.2 196.8 52.8l80-132.8c6.4-9.6 16-16 27.2-16 6.4 0 11.2 1.6 16 4.8 14.4 9.6 20.8 28.8 11.2 43.2l-81.6 136c91.2 73.6 150.4 185.6 150.4 312 0 60.8-14.4 118.4-38.4 171.2l116.8 67.2 104-33.6c3.2-1.6 6.4-1.6 9.6-1.6 12.8 0 25.6 8 30.4 22.4s-3.2 33.6-20.8 38.4zM736 432c0-185.6-150.4-336-336-336s-336 150.4-336 336 150.4 336 336 336c113.6 0 212.8-56 273.6-142.4l-83.2-48c-43.2 57.6-112 94.4-190.4 94.4-132.8 0-240-107.2-240-240s107.2-240 240-240 240 107.2 240 240c0 32-6.4 62.4-17.6 89.6l83.2 48c19.2-41.6 30.4-88 30.4-137.6zM448 496c-12.8 9.6-30.4 16-48 16-44.8 0-80-35.2-80-80s35.2-80 80-80 80 35.2 80 80c0 3.2 0 4.8 0 8l86.4 49.6c6.4-17.6 9.6-36.8 9.6-57.6 0-97.6-78.4-176-176-176s-176 78.4-176 176c0 97.6 78.4 176 176 176 54.4 0 102.4-24 134.4-62.4l-86.4-49.6z" />
<glyph unicode="&#xe687;" d="M472 14.4c-259.2 0-472 212.8-472 473.6s212.8 472 472 472 472-212.8 472-472c0-14.4 0-27.2-1.6-41.6-1.6-17.6-16-30.4-35.2-28.8-17.6 1.6-30.4 17.6-28.8 35.2 1.6 12.8 1.6 24 1.6 36.8 1.6 222.4-182.4 406.4-408 406.4s-408-184-408-408 184-408 408-408c12.8 0 24 0 36.8 1.6 17.6 1.6 33.6-11.2 35.2-28.8s-11.2-33.6-28.8-35.2c-14.4-3.2-28.8-3.2-43.2-3.2zM472 206.4c-155.2 0-281.6 126.4-281.6 281.6s128 280 281.6 280 281.6-126.4 281.6-281.6c0-3.2 0-4.8 0-8 0-17.6-16-32-33.6-30.4-17.6 0-32 14.4-30.4 33.6 0 1.6 0 4.8 0 6.4 0 118.4-97.6 216-217.6 216s-216-97.6-216-216 97.6-217.6 217.6-217.6c1.6 0 4.8 0 6.4 0 16 1.6 32-14.4 32-32s-12.8-32-30.4-33.6c-3.2 1.6-6.4 1.6-9.6 1.6zM472 398.4c-49.6 0-89.6 40-89.6 89.6s40 89.6 89.6 89.6 89.6-40 89.6-89.6-40-89.6-89.6-89.6zM472 512c-14.4 0-25.6-11.2-25.6-25.6s11.2-25.6 25.6-25.6 25.6 11.2 25.6 25.6c0 14.4-11.2 25.6-25.6 25.6zM1014.4-9.6l-321.6 323.2 188.8-17.6c17.6-1.6 33.6 11.2 35.2 28.8s-11.2 33.6-28.8 35.2l-315.2 28.8 25.6-315.2c1.6-16 16-28.8 32-28.8 1.6 0 1.6 0 3.2 0 17.6 1.6 30.4 17.6 28.8 35.2l-16 190.4 323.2-323.2c6.4-8 14.4-11.2 22.4-11.2s16 3.2 22.4 9.6c12.8 12.8 12.8 32 0 44.8z" />
<glyph unicode="&#xe688;" d="M1024 240v448h-256v44.8c0 28.8 22.4 51.2 51.2 51.2 17.6 0 32 14.4 32 32s-14.4 32-32 32c-32 0-62.4-14.4-83.2-35.2-20.8 20.8-51.2 35.2-83.2 35.2-17.6 0-32-14.4-32-32s14.4-32 32-32c28.8 0 51.2-22.4 51.2-51.2v-44.8h-704v-448h704v-76.8c0-28.8-22.4-51.2-51.2-51.2-17.6 0-32-14.4-32-32s14.4-32 32-32c32 0 62.4 14.4 83.2 35.2 20.8-22.4 51.2-35.2 83.2-35.2 17.6 0 32 14.4 32 32s-14.4 32-32 32c-28.8 0-51.2 22.4-51.2 51.2v76.8h256zM960 624v-320h-192v320h192zM64 304v320h640v-320h-640z" />
<glyph unicode="&#xe689;" d="M608 640c-17.6 0-32 14.4-32 32v96h-512v-96c0-17.6-14.4-32-32-32s-32 14.4-32 32v160h640v-160c0-17.6-14.4-32-32-32zM320 64c-17.6 0-32 14.4-32 32v704c0 17.6 14.4 32 32 32s32-14.4 32-32v-704c0-17.6-14.4-32-32-32zM480 64h-320c-17.6 0-32 14.4-32 32s14.4 32 32 32h320c17.6 0 32-14.4 32-32s-14.4-32-32-32zM832-64c-17.6 0-32 14.4-32 32v960c0 17.6 14.4 32 32 32s32-14.4 32-32v-960c0-17.6-14.4-32-32-32z" horiz-adv-x="864" />
<glyph unicode="&#xe68a;" d="M1024 785.6l-172.8 174.4-316.8-316.8-316.8 316.8-217.6-217.6 315.2-316.8-177.6-177.6-137.6-312 312 137.6 176 176 312-312 220.8 220.8-313.6 312 316.8 315.2zM209.6 228.8l540.8 539.2 83.2-83.2-540.8-537.6-83.2 81.6zM932.8 785.6l-54.4-54.4-83.2 83.2 54.4 54.4 83.2-83.2zM299.2 531.2l73.6 73.6-44.8 44.8-73.6-73.6-56 56 48 48-44.8 44.8-48-48-62.4 64 126.4 126.4 270.4-270.4-128-128-60.8 62.4zM176 174.4l62.4-62.4-112-49.6 49.6 112zM929.6 156.8l-129.6-129.6-59.2 59.2 65.6 65.6-44.8 44.8-65.6-65.6-51.2 51.2 49.6 49.6-44.8 44.8-49.6-49.6-67.2 67.2 128 128 268.8-265.6z" />
<glyph unicode="&#xe68b;" d="M1024 785.6l-172.8 174.4-100.8-100.8 172.8-172.8zM0-64l286.4 126.4-160 160zM878.4 640l-172.8 174.4-171.2-171.2-316.8 316.8-217.6-217.6 315.2-316.8-150.4-150.4 174.4-174.4 150.4 150.4 310.4-315.2 220.8 220.8-313.6 313.6 171.2 169.6zM299.2 531.2l73.6 73.6-44.8 44.8-73.6-73.6-56 56 48 48-44.8 44.8-48-48-62.4 64 126.4 126.4 270.4-270.4-128-128-60.8 62.4zM929.6 156.8l-129.6-129.6-59.2 59.2 65.6 65.6-44.8 44.8-65.6-65.6-51.2 51.2 49.6 49.6-44.8 44.8-49.6-49.6-67.2 67.2 129.6 128 267.2-265.6z" />
<glyph unicode="&#xe68c;" d="M928 800h-224v160h-448v-160h-224c-17.6 0-32-14.4-32-32s14.4-32 32-32h64v-800h768v800h64c17.6 0 32 14.4 32 32s-14.4 32-32 32zM320 896h320v-96h-320v96zM800 0h-640v736h640v-736zM480 640c-17.6 0-32-14.4-32-32v-480c0-17.6 14.4-32 32-32s32 14.4 32 32v480c0 17.6-14.4 32-32 32zM320 640c-17.6 0-32-14.4-32-32v-480c0-17.6 14.4-32 32-32s32 14.4 32 32v480c0 17.6-14.4 32-32 32zM640 640c-17.6 0-32-14.4-32-32v-480c0-17.6 14.4-32 32-32s32 14.4 32 32v480c0 17.6-14.4 32-32 32z" horiz-adv-x="960" />
<glyph unicode="&#xe68d;" d="M928 800h-224v160h-448v-160h-224c-17.6 0-32-14.4-32-32s14.4-32 32-32h64v-800h768v800h64c17.6 0 32 14.4 32 32s-14.4 32-32 32zM320 896h320v-96h-320v96zM352 128c0-17.6-14.4-32-32-32s-32 14.4-32 32v480c0 17.6 14.4 32 32 32s32-14.4 32-32v-480zM512 128c0-17.6-14.4-32-32-32s-32 14.4-32 32v480c0 17.6 14.4 32 32 32s32-14.4 32-32v-480zM672 128c0-17.6-14.4-32-32-32s-32 14.4-32 32v480c0 17.6 14.4 32 32 32s32-14.4 32-32v-480z" horiz-adv-x="960" />
<glyph unicode="&#xe68e;" d="M864 832h-224v33.6c0 52.8-41.6 94.4-94.4 94.4h-195.2c-52.8 0-94.4-41.6-94.4-94.4v-33.6h-224c-17.6 0-32-14.4-32-32s14.4-32 32-32h59.2l44.8-723.2c3.2-60.8 51.2-108.8 110.4-108.8h406.4c57.6 0 105.6 46.4 110.4 108.8l41.6 723.2h59.2c17.6 0 32 14.4 32 32s-14.4 32-32 32zM320 865.6c0 16 14.4 30.4 30.4 30.4h195.2c16 0 30.4-14.4 30.4-30.4v-33.6h-256v33.6zM697.6 48c-1.6-24-17.6-48-46.4-48h-406.4c-25.6 0-44.8 20.8-46.4 48l-44.8 720h587.2l-43.2-720zM448 704c-17.6 0-32-14.4-32-32v-576c0-17.6 14.4-32 32-32s32 14.4 32 32v576c0 17.6-14.4 32-32 32zM286.4 704c-17.6-1.6-30.4-16-30.4-33.6l32-576c1.6-17.6 14.4-30.4 32-30.4 0 0 1.6 0 1.6 0 17.6 1.6 30.4 16 30.4 33.6l-32 576c-1.6 17.6-16 32-33.6 30.4zM576 673.6l-32-576c-1.6-17.6 12.8-32 30.4-33.6 0 0 1.6 0 1.6 0 17.6 0 30.4 12.8 32 30.4l32 576c1.6 17.6-12.8 32-30.4 33.6s-32-12.8-33.6-30.4z" horiz-adv-x="896" />
<glyph unicode="&#xe68f;" d="M864 832h-224v33.6c0 52.8-41.6 94.4-94.4 94.4h-195.2c-52.8 0-94.4-41.6-94.4-94.4v-33.6h-224c-17.6 0-32-14.4-32-32s14.4-32 32-32h59.2l44.8-723.2c3.2-62.4 51.2-108.8 110.4-108.8h406.4c57.6 0 105.6 46.4 110.4 108.8l41.6 723.2h59.2c17.6 0 32 14.4 32 32s-14.4 32-32 32zM320 865.6c0 16 14.4 30.4 30.4 30.4h195.2c16 0 30.4-14.4 30.4-30.4v-33.6h-256v33.6zM321.6 64c0 0-1.6 0-1.6 0-17.6 0-30.4 12.8-32 30.4l-32 576c-1.6 17.6 12.8 32 30.4 33.6s32-12.8 33.6-30.4l32-576c1.6-17.6-12.8-32-30.4-33.6zM480 96c0-17.6-14.4-32-32-32s-32 14.4-32 32v576c0 17.6 14.4 32 32 32s32-14.4 32-32v-576zM608 94.4c-1.6-17.6-14.4-30.4-32-30.4 0 0-1.6 0-1.6 0-17.6 1.6-30.4 16-30.4 33.6l32 576c1.6 17.6 16 30.4 33.6 30.4 17.6-1.6 30.4-16 30.4-33.6l-32-576z" horiz-adv-x="896" />
<glyph unicode="&#xe690;" d="M864 960h-832c-17.6 0-32-14.4-32-32s14.4-32 32-32h51.2l96-960h537.6l94.4 960h52.8c17.6 0 32 14.4 32 32s-14.4 32-32 32zM385.6 256l-9.6 192h144l-9.6-192h-124.8zM507.2 192l-9.6-192h-99.2l-9.6 192h118.4zM169.6 672h131.2l8-160h-123.2l-16 160zM192 448h120l9.6-192h-110.4l-19.2 192zM584 448h120l-19.2-192h-110.4l9.6 192zM710.4 512h-123.2l8 160h131.2l-16-160zM523.2 512h-150.4l-8 160h166.4l-8-160zM361.6 736l-8 160h188.8l-8-160h-172.8zM289.6 896l8-160h-134.4l-16 160h142.4zM217.6 192h107.2l9.6-192h-97.6l-19.2 192zM561.6 0l9.6 192h107.2l-19.2-192h-97.6zM731.2 736h-132.8l8 160h140.8l-16-160z" horiz-adv-x="896" />
<glyph unicode="&#xe691;" d="M736 512h-528v208c0 97.6 78.4 176 176 176s176-78.4 176-176v-28.8c0-17.6 14.4-32 32-32s32 14.4 32 32v28.8c0 132.8-107.2 240-240 240s-240-107.2-240-240v-208h-112c-17.6 0-32-14.4-32-32v-512c0-17.6 14.4-32 32-32h704c17.6 0 32 14.4 32 32v512c0 17.6-14.4 32-32 32zM704 0h-640v448h640v-448zM384 112c-17.6 0-32 14.4-32 32v160c0 17.6 14.4 32 32 32s32-14.4 32-32v-160c0-17.6-14.4-32-32-32z" horiz-adv-x="768" />
<glyph unicode="&#xe692;" d="M208 512v208c0 97.6 78.4 176 176 176s176-78.4 176-176v-28.8c0-17.6 14.4-32 32-32s32 14.4 32 32v28.8c0 132.8-107.2 240-240 240s-240-107.2-240-240v-208h-144v-576h768v576h-560zM416 144c0-17.6-14.4-32-32-32s-32 14.4-32 32v160c0 17.6 14.4 32 32 32s32-14.4 32-32v-160z" horiz-adv-x="768" />
<glyph unicode="&#xe693;" d="M384 112c-17.6 0-32 14.4-32 32v160c0 17.6 14.4 32 32 32s32-14.4 32-32v-160c0-17.6-14.4-32-32-32zM640 512h-432v208c0 97.6 78.4 176 176 176s176-78.4 176-176v-28.8c0-17.6 14.4-32 32-32s32 14.4 32 32v28.8c0 132.8-107.2 240-240 240s-240-107.2-240-240v-208h-16c-70.4 0-128-57.6-128-128v-320c0-70.4 57.6-128 128-128h512c70.4 0 128 57.6 128 128v320c0 70.4-57.6 128-128 128zM704 64c0-35.2-28.8-64-64-64h-512c-35.2 0-64 28.8-64 64v320c0 35.2 28.8 64 64 64h512c35.2 0 64-28.8 64-64v-320z" horiz-adv-x="768" />
<glyph unicode="&#xe694;" d="M640 512h-432v208c0 97.6 78.4 176 176 176s176-78.4 176-176v-28.8c0-17.6 14.4-32 32-32s32 14.4 32 32v28.8c0 132.8-107.2 240-240 240s-240-107.2-240-240v-208h-16c-70.4 0-128-57.6-128-128v-320c0-70.4 57.6-128 128-128h512c70.4 0 128 57.6 128 128v320c0 70.4-57.6 128-128 128zM416 144c0-17.6-14.4-32-32-32s-32 14.4-32 32v160c0 17.6 14.4 32 32 32s32-14.4 32-32v-160z" horiz-adv-x="768" />
<glyph unicode="&#xe695;" d="M352 176c-17.6 0-32 14.4-32 32v160c0 17.6 14.4 32 32 32s32-14.4 32-32v-160c0-17.6-14.4-32-32-32zM352 640c-64 0-124.8-17.6-176-48v128c0 97.6 78.4 176 176 176s176-78.4 176-176c0-17.6 14.4-32 32-32s32 14.4 32 32c0 132.8-107.2 240-240 240s-240-107.2-240-240v-174.4c-68.8-64-112-155.2-112-257.6 0-193.6 158.4-352 352-352s352 158.4 352 352-158.4 352-352 352zM352 0c-158.4 0-288 129.6-288 288s129.6 288 288 288 288-129.6 288-288-129.6-288-288-288z" horiz-adv-x="704" />
<glyph unicode="&#xe696;" d="M352 640c-64 0-124.8-17.6-176-48v128c0 97.6 78.4 176 176 176s176-78.4 176-176c0-17.6 14.4-32 32-32s32 14.4 32 32c0 132.8-107.2 240-240 240s-240-107.2-240-240v-174.4c-68.8-64-112-155.2-112-257.6 0-193.6 158.4-352 352-352s352 158.4 352 352c0 193.6-158.4 352-352 352zM384 208c0-17.6-14.4-32-32-32s-32 14.4-32 32v160c0 17.6 14.4 32 32 32s32-14.4 32-32v-160z" horiz-adv-x="704" />
<glyph unicode="&#xe697;" d="M832 128h-256c-17.6 0-32 14.4-32 32s14.4 32 32 32h192v704h-704v-704h192c17.6 0 32-14.4 32-32s-14.4-32-32-32h-256v832h832v-832zM616 468.8l-200 235.2-200-235.2c-11.2-12.8-9.6-33.6 3.2-44.8s33.6-9.6 44.8 3.2l118.4 140.8v-600c0-17.6 14.4-32 32-32s32 14.4 32 32v600l118.4-139.2c6.4-8 16-11.2 24-11.2s14.4 3.2 20.8 8c16 9.6 17.6 30.4 6.4 43.2z" horiz-adv-x="832" />
<glyph unicode="&#xe698;" d="M1014.4-9.6l-332.8 332.8c57.6 67.2 91.2 155.2 91.2 249.6 0 214.4-172.8 387.2-385.6 387.2s-387.2-172.8-387.2-387.2 172.8-387.2 387.2-387.2c94.4 0 182.4 35.2 249.6 91.2l332.8-332.8c6.4-4.8 14.4-8 22.4-8s16 3.2 22.4 9.6c12.8 12.8 12.8 32 0 44.8zM64 572.8c0 177.6 144 323.2 323.2 323.2s323.2-144 323.2-323.2-144-323.2-323.2-323.2-323.2 145.6-323.2 323.2zM540.8 604.8h-123.2v123.2c0 17.6-14.4 32-32 32s-32-14.4-32-32v-123.2h-123.2c-17.6 0-32-14.4-32-32s14.4-32 32-32h123.2v-123.2c0-17.6 14.4-32 32-32s32 14.4 32 32v123.2h123.2c17.6 0 32 14.4 32 32s-14.4 32-32 32z" />
<glyph unicode="&#xe699;" d="M1014.4-9.6l-332.8 332.8c57.6 67.2 91.2 155.2 91.2 249.6 0 214.4-172.8 387.2-385.6 387.2s-387.2-172.8-387.2-387.2 172.8-387.2 387.2-387.2c94.4 0 182.4 35.2 249.6 91.2l332.8-332.8c6.4-4.8 14.4-8 22.4-8s16 3.2 22.4 9.6c12.8 12.8 12.8 32 0 44.8zM540.8 540.8h-123.2v-123.2c0-17.6-14.4-32-32-32s-32 14.4-32 32v123.2h-123.2c-17.6 0-32 14.4-32 32s14.4 32 32 32h123.2v123.2c0 17.6 14.4 32 32 32s32-14.4 32-32v-123.2h123.2c17.6 0 32-14.4 32-32s-14.4-32-32-32z" />
<glyph unicode="&#xe69a;" d="M1014.4-9.6l-332.8 332.8c57.6 67.2 91.2 155.2 91.2 249.6 0 214.4-172.8 387.2-385.6 387.2s-387.2-172.8-387.2-387.2 172.8-387.2 387.2-387.2c94.4 0 182.4 35.2 249.6 91.2l332.8-332.8c6.4-4.8 14.4-8 22.4-8s16 3.2 22.4 9.6c12.8 12.8 12.8 32 0 44.8zM64 572.8c0 177.6 144 323.2 323.2 323.2s323.2-144 323.2-323.2-144-323.2-323.2-323.2-323.2 145.6-323.2 323.2zM540.8 540.8h-308.8c-17.6 0-32 14.4-32 32s14.4 32 32 32h308.8c17.6 0 32-14.4 32-32s-14.4-32-32-32z" />
<glyph unicode="&#xe69b;" d="M1014.4-9.6l-332.8 332.8c57.6 67.2 91.2 155.2 91.2 249.6 0 214.4-172.8 387.2-385.6 387.2s-387.2-172.8-387.2-387.2 172.8-387.2 387.2-387.2c94.4 0 182.4 35.2 249.6 91.2l332.8-332.8c6.4-4.8 14.4-8 22.4-8s16 3.2 22.4 9.6c12.8 12.8 12.8 32 0 44.8zM540.8 540.8h-308.8c-17.6 0-32 14.4-32 32s14.4 32 32 32h308.8c17.6 0 32-14.4 32-32s-14.4-32-32-32z" />
<glyph unicode="&#xe69c;" d="M1014.4-9.6l-332.8 332.8c57.6 67.2 91.2 155.2 91.2 249.6 0 214.4-172.8 387.2-385.6 387.2s-387.2-172.8-387.2-387.2 172.8-387.2 387.2-387.2c94.4 0 182.4 35.2 249.6 91.2l332.8-332.8c6.4-4.8 14.4-8 22.4-8s16 3.2 22.4 9.6c12.8 12.8 12.8 32 0 44.8zM64 572.8c0 177.6 144 323.2 323.2 323.2s323.2-144 323.2-323.2-144-323.2-323.2-323.2-323.2 145.6-323.2 323.2z" />
</font>
</defs>
</svg>
